<svg width="292" height="292" viewBox="0 0 292 292" fill="none" xmlns="http://www.w3.org/2000/svg">
<path d="M165.961 272.038C186.688 268.755 206.286 260.411 223.018 247.745C239.75 235.079 253.1 218.482 261.886 199.425C270.672 180.367 274.622 159.437 273.386 138.488C272.151 117.539 265.768 97.2176 254.803 79.3247C243.838 61.4317 228.63 46.519 210.525 35.9076C192.42 25.2962 171.978 19.3136 151.009 18.4897C130.04 17.6658 109.191 22.0261 90.3094 31.1843C71.4279 40.3425 55.0963 54.016 42.7614 70.9935L48.0813 74.8586C59.7805 58.7559 75.2705 45.787 93.1791 37.1008C111.088 28.4145 130.862 24.2789 150.751 25.0603C170.639 25.8417 190.028 31.5161 207.2 41.5807C224.372 51.6453 238.797 65.7895 249.197 82.7604C259.596 99.7314 265.65 119.005 266.822 138.875C267.994 158.744 264.247 178.596 255.914 196.672C247.581 214.747 234.919 230.489 219.049 242.502C203.179 254.515 184.592 262.429 164.933 265.543L165.961 272.038Z" fill="url(#paint0_linear_1094_10)"/>
<path d="M186.113 109.108L171.679 98.6836L179.697 109.91L155.641 111.514L198.943 129.958L185.311 118.731L186.113 109.108Z" fill="url(#paint1_linear_1094_10)"/>
<path d="M130.375 135.748L143.602 129.961L134.784 138.191C132.651 140.182 130.756 142.414 129.138 144.841C124.48 151.827 122.288 160.169 122.908 168.542C123.333 174.286 125.069 179.856 127.982 184.825L137.187 200.528L156.432 220.575L170.065 239.821C170.065 235.559 169.553 231.276 168.559 227.132C166.394 218.113 162.249 209.603 156.455 202.36L152.423 197.32L163.051 202.831C170.244 206.561 176.212 212.33 180.2 219.384C183.018 224.371 184.628 229.974 184.877 235.697C185.155 242.075 183.746 248.414 180.792 254.075L179.789 255.997C177.075 261.199 173.357 265.811 168.849 269.568L166.055 271.896L163.649 272.698C163.649 266.869 162.559 261.091 160.435 255.663L160.133 254.891C157.69 248.647 154.043 242.945 149.4 238.108L137.187 225.386L121.757 208.028C119.223 205.177 117.049 202.025 115.284 198.643L112.735 193.757C109.822 188.173 108.087 182.05 107.638 175.768L107.486 173.628C106.982 166.573 108.438 159.515 111.694 153.236C115.736 145.44 122.33 139.267 130.375 135.748Z" fill="url(#paint2_linear_1094_10)"/>
<path d="M192.347 84.0599L174.875 78.6377L182.894 84.251L188.888 88.247C192.865 90.8985 196.233 94.3664 198.766 98.42L199.048 98.8715C201.613 102.976 205.033 106.479 209.074 109.142L238.225 128.355L213.366 137.978L234.215 150.808L220.583 174.063L224 183L230 199.5L216 211L193 195L190.111 178.875L162.847 166.846L164.45 142.789L169.262 128.355L152.422 141.987L154.026 161.233V190.903L158.582 191.916C160.352 192.309 162.084 192.86 163.756 193.561L177.655 199.39C183.27 201.744 188.622 204.685 193.62 208.162L196.507 210.17C201.849 213.886 206.755 218.192 211.132 223.007L220.583 233.403L224.592 224.583L238.225 202.931L231.809 175.667L248.649 156.422L244.64 149.204L251.857 128.355L214.417 103.631C211.086 101.431 208.29 98.5117 206.236 95.0883L206.097 94.8569C205.066 93.1387 203.829 91.5535 202.412 90.1366C199.599 87.3243 196.145 85.2387 192.347 84.0599Z" fill="url(#paint3_linear_1094_10)"/>
<path d="M197.5 176L189 179L192.5 195L224 183L221.5 174L197.5 176Z" fill="url(#paint4_linear_1094_10)"/>
<path d="M99.4409 126.552L100.295 136.377L101.38 128.243C101.725 125.657 102.389 123.123 103.358 120.7C105.549 115.223 109.232 110.471 113.989 106.983L114.643 106.503C117.359 104.511 120.353 102.929 123.528 101.809L132.371 98.6877L126.747 92.3611C126.222 91.77 125.777 91.1124 125.423 90.405L124.702 88.962C123.518 86.5948 123.868 83.7488 125.591 81.7393C126.84 80.2813 128.665 79.4422 130.585 79.4422H134.3C136.204 79.4422 138.088 79.8128 139.85 80.5334L154.824 86.6593L148.409 81.046L140.788 75.6026C138.401 73.8976 135.745 72.6044 132.931 71.7768L128.105 70.3572C125.167 69.4931 122.016 69.7149 119.228 70.9822C116.334 72.2978 114.035 74.6469 112.783 77.5692L112.186 78.9608C110.717 82.3898 110.44 86.2128 111.402 89.8175L113.126 96.282L110.416 98.7202C106.916 101.871 104.118 105.723 102.205 110.027C99.9004 115.213 98.9493 120.899 99.4409 126.552Z" fill="url(#paint5_linear_1094_10)"/>
<path d="M33.5644 113.805L39.2366 106.512C44.1011 100.258 49.8468 94.7421 56.2944 90.1367C61.0127 86.7664 66.2085 84.1206 71.7094 82.287L82.6572 78.6377L77.2706 82.7812C73.9187 85.3596 70.8053 88.2341 67.9681 91.37L64.1706 95.5673C59.415 100.823 55.4785 106.766 52.4936 113.195L49.0802 120.547C47.411 124.142 46.0476 127.872 45.0047 131.696L39.3549 152.412L52.9871 148.403L65.7818 145.204C70.0728 144.131 74.4551 143.464 78.871 143.212L100.299 141.987L88.2705 146.799L70.926 156.09C67.526 157.912 64.2811 160.009 61.2238 162.361L54.6778 167.396C48.2527 172.339 42.7273 178.351 38.3438 185.17L30.534 197.318L25.7952 185.256C23.0907 178.371 21.4853 171.105 21.0378 163.722L20.5584 155.812C20.2601 150.89 20.5474 145.95 21.4143 141.095C23.1906 131.148 27.3606 121.782 33.5644 113.805Z" fill="url(#paint6_linear_1094_10)"/>
<path d="M101.949 246.527L99.5474 243.571C95.8384 239.006 93.3422 233.578 92.29 227.791L77.7288 219.75C70.9069 215.982 64.725 211.157 59.4131 205.455L58.9084 204.913L46.1014 190.904L35.3555 206.942L46.3038 222.148C48.6239 225.371 51.2003 228.4 54.0079 231.208L61.7731 238.973C65.5342 242.734 69.691 246.078 74.1711 248.945L87.4787 257.462L101.195 264.066C106.466 266.604 112.021 268.506 117.741 269.732L123.941 271.06C129.021 272.149 134.203 272.698 139.399 272.698H151.63L142.902 271.035C137.515 270.009 132.277 268.317 127.307 265.998C124.282 264.586 121.367 262.947 118.589 261.094L117.746 260.533C114.679 258.488 111.77 256.217 109.043 253.737L107.098 251.97C105.248 250.287 103.527 248.468 101.949 246.527Z" fill="url(#paint7_linear_1094_10)"/>
<path d="M49.9946 186.656L46 191L58.9086 204.913L76.8384 181.86L79.3998 192.106L76.8384 204.913L66.5928 212.597L77.5 221L92.2068 227.965L97.022 211.915C98.9245 205.573 99.891 198.988 99.891 192.367C99.891 183.681 98.9404 175.021 97.0561 166.542L94.7682 156.246L81.9612 163.93L76.6339 166.594C66.6086 171.607 57.5813 178.405 49.9946 186.656Z" fill="url(#paint8_linear_1094_10)"/>
<path d="M49.2131 78.0801L27.332 102.696L32.4342 89.3032C33.3078 87.0099 34.3822 84.7983 35.6448 82.6939L40.7289 74.2205C42.483 71.297 44.589 68.5996 46.9997 66.1889L56.6241 56.5645C59.5331 53.6555 62.8566 51.193 66.4866 49.257L77.6237 43.3172C82.5371 40.6967 87.9256 39.0869 93.4713 38.5828L99.2255 38.0596C101.545 37.8488 103.877 37.8326 106.199 38.0112L118.931 38.9906C122.007 39.2272 125.047 39.8045 127.996 40.7118L144.409 45.7618C144.409 41.6543 142.777 37.7149 139.873 34.8104L133.182 28.1201L141.373 32.0204C147.065 34.7309 152.068 38.6967 156.006 43.6195L156.807 44.6204C160.784 49.5921 163.57 55.4084 164.952 61.6236L167.664 73.8281L160.22 66.8225C156.136 62.9789 151.319 59.9986 146.057 58.0598L143.362 57.067C140.328 55.9491 137.174 55.188 133.964 54.7989L118.209 52.8892C114.311 52.4167 110.366 52.4971 106.491 53.128L86.4429 56.3916C80.7763 57.3141 75.3613 59.3968 70.537 62.5092L57.7731 70.744C54.6008 72.7906 51.7212 75.2585 49.2131 78.0801Z" fill="url(#paint9_linear_1094_10)"/>
<defs>
<linearGradient id="paint0_linear_1094_10" x1="199.744" y1="272.698" x2="100.309" y2="20.9025" gradientUnits="userSpaceOnUse">
<stop offset="0.0336617" stop-color="#A70C32"/>
<stop offset="0.958892" stop-color="#F59E28"/>
</linearGradient>
<linearGradient id="paint1_linear_1094_10" x1="177.292" y1="98.6836" x2="177.292" y2="129.958" gradientUnits="userSpaceOnUse">
<stop offset="0.255208" stop-color="#F69E28"/>
<stop offset="1" stop-color="#A30433"/>
</linearGradient>
<linearGradient id="paint2_linear_1094_10" x1="146.008" y1="129.961" x2="146.008" y2="272.698" gradientUnits="userSpaceOnUse">
<stop offset="0.255208" stop-color="#F69E28"/>
<stop offset="1" stop-color="#A30433"/>
</linearGradient>
<linearGradient id="paint3_linear_1094_10" x1="202.139" y1="78.6377" x2="202.139" y2="233.403" gradientUnits="userSpaceOnUse">
<stop offset="0.255208" stop-color="#F69E28"/>
<stop offset="1" stop-color="#A30433"/>
</linearGradient>
<linearGradient id="paint4_linear_1094_10" x1="205" y1="172" x2="190" y2="193.5" gradientUnits="userSpaceOnUse">
<stop stop-color="#CC512D"/>
<stop offset="1" stop-color="#C23E2F"/>
</linearGradient>
<linearGradient id="paint5_linear_1094_10" x1="126.758" y1="69.0176" x2="126.758" y2="136.377" gradientUnits="userSpaceOnUse">
<stop offset="0.255208" stop-color="#F69E28"/>
<stop offset="1" stop-color="#A30433"/>
</linearGradient>
<linearGradient id="paint6_linear_1094_10" x1="60.2041" y1="78.6377" x2="60.2041" y2="197.318" gradientUnits="userSpaceOnUse">
<stop offset="0.255208" stop-color="#F69E28"/>
<stop offset="1" stop-color="#A30433"/>
</linearGradient>
<linearGradient id="paint7_linear_1094_10" x1="79" y1="142" x2="93.4929" y2="272.697" gradientUnits="userSpaceOnUse">
<stop offset="0.255208" stop-color="#F69E28"/>
<stop offset="1" stop-color="#A30433"/>
</linearGradient>
<linearGradient id="paint8_linear_1094_10" x1="47.5" y1="192" x2="98" y2="231" gradientUnits="userSpaceOnUse">
<stop stop-color="#E88529"/>
<stop offset="0.617302" stop-color="#CF562D"/>
<stop offset="0.952294" stop-color="#C6462E"/>
</linearGradient>
<linearGradient id="paint9_linear_1094_10" x1="97.4978" y1="28.1201" x2="97.4978" y2="102.696" gradientUnits="userSpaceOnUse">
<stop offset="0.255208" stop-color="#F69E28"/>
<stop offset="1" stop-color="#A30433"/>
</linearGradient>
</defs>
</svg>
