<svg width="159" height="28" viewBox="0 0 159 28" fill="none" xmlns="http://www.w3.org/2000/svg">
<path d="M1.875 3.69727H0.410156V2.66602H4.42969V3.69727H2.96484V12H1.875V3.69727ZM6.07594 2.66602H7.16578V7.8457H9.22242V2.66602H10.3123V12H9.22242V8.87695H7.16578V12H6.07594V2.66602ZM12.5503 2.66602H15.6909V3.69727H13.6402V7.2832H15.398V8.31445H13.6402V10.9688H15.6909V12H12.5503V2.66602ZM19.9327 2.66602H23.0733V3.69727H21.0225V7.2832H22.7803V8.31445H21.0225V10.9688H23.0733V12H19.9327V2.66602ZM25.0125 2.30859L27.948 7.20117L28.5926 8.33789L28.5633 7.21875V2.66602H29.6473V12.1992L26.7059 7.33594L26.0672 6.31641L26.1023 7.33594V12H25.0125V2.30859ZM32.7525 3.69727H31.2877V2.66602H35.3072V3.69727H33.8423V12H32.7525V3.69727ZM36.9534 2.54883C37.6214 2.52148 38.2034 2.58008 38.6995 2.72461C39.1956 2.86914 39.6058 3.08594 39.93 3.375C40.2542 3.66016 40.4964 4.00781 40.6566 4.41797C40.8167 4.82812 40.8968 5.2832 40.8968 5.7832C40.8968 6.36523 40.7913 6.88281 40.5804 7.33594C40.3695 7.78906 40.0452 8.1582 39.6077 8.44336L41.2308 12H40.0003L38.6644 8.85352C38.4691 8.9082 38.262 8.94922 38.0433 8.97656V12H36.9534V2.54883ZM38.0433 7.86914C38.2933 7.8457 38.5238 7.78711 38.7347 7.69336C38.9456 7.59961 39.1273 7.4668 39.2796 7.29492C39.432 7.11914 39.5511 6.90625 39.637 6.65625C39.723 6.40625 39.7659 6.11523 39.7659 5.7832C39.7659 5.45117 39.723 5.16016 39.637 4.91016C39.5511 4.66016 39.432 4.44922 39.2796 4.27734C39.1273 4.10156 38.9456 3.9668 38.7347 3.87305C38.5238 3.7793 38.2933 3.7207 38.0433 3.69727V7.86914ZM42.7012 2.66602H45.8419V3.69727H43.7911V7.2832H45.5489V8.31445H43.7911V10.9688H45.8419V12H42.7012V2.66602ZM47.7811 2.54883C48.4491 2.52148 49.0311 2.58398 49.5272 2.73633C50.0233 2.88477 50.4334 3.10742 50.7577 3.4043C51.0819 3.70117 51.3241 4.0625 51.4842 4.48828C51.6444 4.91406 51.7245 5.38477 51.7245 5.90039C51.7245 6.3418 51.6659 6.75 51.5487 7.125C51.4354 7.5 51.2596 7.83203 51.0213 8.12109C50.787 8.40625 50.4901 8.64258 50.1307 8.83008C49.7752 9.01758 49.3553 9.14453 48.8709 9.21094V12H47.7811V2.54883ZM48.8709 8.10352C49.1209 8.08008 49.3514 8.01953 49.5623 7.92188C49.7733 7.82031 49.9549 7.67773 50.1073 7.49414C50.2596 7.31055 50.3787 7.08789 50.4647 6.82617C50.5506 6.56055 50.5936 6.25195 50.5936 5.90039C50.5936 5.54883 50.5506 5.24219 50.4647 4.98047C50.3787 4.71484 50.2596 4.49023 50.1073 4.30664C49.9549 4.12305 49.7733 3.98242 49.5623 3.88477C49.3514 3.7832 49.1209 3.7207 48.8709 3.69727V8.10352ZM53.4938 2.54883C54.1617 2.52148 54.7438 2.58008 55.2398 2.72461C55.7359 2.86914 56.1461 3.08594 56.4703 3.375C56.7945 3.66016 57.0367 4.00781 57.1969 4.41797C57.357 4.82812 57.4371 5.2832 57.4371 5.7832C57.4371 6.36523 57.3316 6.88281 57.1207 7.33594C56.9098 7.78906 56.5855 8.1582 56.148 8.44336L57.7711 12H56.5406L55.2047 8.85352C55.0094 8.9082 54.8023 8.94922 54.5836 8.97656V12H53.4938V2.54883ZM54.5836 7.86914C54.8336 7.8457 55.0641 7.78711 55.275 7.69336C55.4859 7.59961 55.6676 7.4668 55.8199 7.29492C55.9723 7.11914 56.0914 6.90625 56.1773 6.65625C56.2633 6.40625 56.3063 6.11523 56.3063 5.7832C56.3063 5.45117 56.2633 5.16016 56.1773 4.91016C56.0914 4.66016 55.9723 4.44922 55.8199 4.27734C55.6676 4.10156 55.4859 3.9668 55.275 3.87305C55.0641 3.7793 54.8336 3.7207 54.5836 3.69727V7.86914ZM59.2416 2.66602H62.3822V3.69727H60.3314V7.2832H62.0892V8.31445H60.3314V10.9688H62.3822V12H59.2416V2.66602ZM64.3214 2.30859L67.257 7.20117L67.9015 8.33789L67.8722 7.21875V2.66602H68.9562V12.1992L66.0148 7.33594L65.3761 6.31641L65.4113 7.33594V12H64.3214V2.30859ZM71.1825 2.66602H74.3231V3.69727H72.2723V7.2832H74.0302V8.31445H72.2723V10.9688H74.3231V12H71.1825V2.66602ZM76.2506 2.66602H77.3405V9.26953C77.3405 9.59375 77.3639 9.86914 77.4108 10.0957C77.4616 10.3184 77.5338 10.5 77.6276 10.6406C77.7252 10.7773 77.8424 10.877 77.9791 10.9395C78.1159 11.002 78.2721 11.0332 78.4479 11.0332C78.6237 11.0332 78.7799 11.002 78.9166 10.9395C79.0534 10.877 79.1686 10.7773 79.2623 10.6406C79.36 10.5 79.4323 10.3184 79.4791 10.0957C79.5299 9.86914 79.5553 9.59375 79.5553 9.26953V2.66602H80.6452V9.4043C80.6452 9.87695 80.5944 10.2832 80.4928 10.623C80.3952 10.9629 80.2506 11.2441 80.0592 11.4668C79.8717 11.6855 79.6413 11.8477 79.3678 11.9531C79.0983 12.0586 78.7916 12.1113 78.4479 12.1113C78.1041 12.1113 77.7955 12.0586 77.5221 11.9531C77.2526 11.8477 77.0221 11.6855 76.8307 11.4668C76.6432 11.2441 76.4987 10.9629 76.3971 10.623C76.2995 10.2832 76.2506 9.87695 76.2506 9.4043V2.66602ZM82.8773 2.54883C83.5453 2.52148 84.1273 2.58008 84.6234 2.72461C85.1195 2.86914 85.5297 3.08594 85.8539 3.375C86.1781 3.66016 86.4203 4.00781 86.5805 4.41797C86.7406 4.82812 86.8207 5.2832 86.8207 5.7832C86.8207 6.36523 86.7152 6.88281 86.5043 7.33594C86.2934 7.78906 85.9691 8.1582 85.5316 8.44336L87.1547 12H85.9242L84.5883 8.85352C84.393 8.9082 84.1859 8.94922 83.9672 8.97656V12H82.8773V2.54883ZM83.9672 7.86914C84.2172 7.8457 84.4477 7.78711 84.6586 7.69336C84.8695 7.59961 85.0512 7.4668 85.2035 7.29492C85.3559 7.11914 85.475 6.90625 85.5609 6.65625C85.6469 6.40625 85.6898 6.11523 85.6898 5.7832C85.6898 5.45117 85.6469 5.16016 85.5609 4.91016C85.475 4.66016 85.3559 4.44922 85.2035 4.27734C85.0512 4.10156 84.8695 3.9668 84.6586 3.87305C84.4477 3.7793 84.2172 3.7207 83.9672 3.69727V7.86914ZM88.6252 2.66602H89.715V12H88.6252V2.66602ZM93.8222 2.37891L96.5351 12H95.3632L94.953 10.4473H92.6855L92.2812 12H91.1093L93.8222 2.37891ZM94.6835 9.41602L94.0566 7.00781L93.8163 5.89453L93.5878 7.00781L92.955 9.41602H94.6835ZM97.9411 2.66602H99.0309V10.9805H101.439V12H97.9411V2.66602ZM107.486 12.1113C107.111 12.1113 106.753 12.0273 106.413 11.8594C106.073 11.6914 105.777 11.418 105.523 11.0391C105.269 10.6602 105.066 10.168 104.913 9.5625C104.765 8.95312 104.691 8.21094 104.691 7.33594C104.691 6.46094 104.765 5.7207 104.913 5.11523C105.066 4.50586 105.269 4.01367 105.523 3.63867C105.777 3.25977 106.073 2.98633 106.413 2.81836C106.753 2.64648 107.111 2.56055 107.486 2.56055C107.7 2.56055 107.898 2.58008 108.077 2.61914C108.261 2.6582 108.448 2.71875 108.64 2.80078L108.154 3.74414C108.009 3.67773 107.835 3.64453 107.632 3.64453C107.413 3.64453 107.196 3.71094 106.982 3.84375C106.767 3.97266 106.573 4.18359 106.402 4.47656C106.23 4.76953 106.089 5.15039 105.98 5.61914C105.874 6.08789 105.821 6.66016 105.821 7.33594C105.821 8.01172 105.874 8.58398 105.98 9.05273C106.089 9.52148 106.23 9.90234 106.402 10.1953C106.573 10.4883 106.767 10.7012 106.982 10.834C107.196 10.9629 107.413 11.0273 107.632 11.0273C107.835 11.0273 108.009 10.9941 108.154 10.9277L108.64 11.8711C108.448 11.9531 108.261 12.0137 108.077 12.0527C107.898 12.0918 107.7 12.1113 107.486 12.1113ZM110.345 2.66602H111.435V7.8457H113.491V2.66602H114.581V12H113.491V8.87695H111.435V12H110.345V2.66602ZM116.819 2.54883C117.487 2.52148 118.069 2.58008 118.565 2.72461C119.061 2.86914 119.471 3.08594 119.796 3.375C120.12 3.66016 120.362 4.00781 120.522 4.41797C120.682 4.82812 120.762 5.2832 120.762 5.7832C120.762 6.36523 120.657 6.88281 120.446 7.33594C120.235 7.78906 119.911 8.1582 119.473 8.44336L121.096 12H119.866L118.53 8.85352C118.335 8.9082 118.128 8.94922 117.909 8.97656V12H116.819V2.54883ZM117.909 7.86914C118.159 7.8457 118.389 7.78711 118.6 7.69336C118.811 7.59961 118.993 7.4668 119.145 7.29492C119.298 7.11914 119.417 6.90625 119.503 6.65625C119.589 6.40625 119.632 6.11523 119.632 5.7832C119.632 5.45117 119.589 5.16016 119.503 4.91016C119.417 4.66016 119.298 4.44922 119.145 4.27734C118.993 4.10156 118.811 3.9668 118.6 3.87305C118.389 3.7793 118.159 3.7207 117.909 3.69727V7.86914ZM124.641 12.1113C124.454 12.1113 124.26 12.082 124.061 12.0234C123.866 11.9688 123.674 11.873 123.487 11.7363C123.299 11.5957 123.122 11.4102 122.954 11.1797C122.786 10.9453 122.637 10.6523 122.508 10.3008C122.383 9.94531 122.284 9.52344 122.209 9.03516C122.135 8.54688 122.098 7.98047 122.098 7.33594C122.098 6.69141 122.135 6.125 122.209 5.63672C122.284 5.14844 122.383 4.72852 122.508 4.37695C122.637 4.02148 122.786 3.72852 122.954 3.49805C123.122 3.26367 123.299 3.07812 123.487 2.94141C123.674 2.80078 123.866 2.70312 124.061 2.64844C124.26 2.58984 124.454 2.56055 124.641 2.56055C124.825 2.56055 125.016 2.58984 125.215 2.64844C125.415 2.70312 125.608 2.80078 125.795 2.94141C125.983 3.07812 126.161 3.26367 126.329 3.49805C126.497 3.72852 126.643 4.02148 126.768 4.37695C126.897 4.72852 126.999 5.14844 127.073 5.63672C127.147 6.125 127.184 6.69141 127.184 7.33594C127.184 7.98047 127.147 8.54688 127.073 9.03516C126.999 9.52344 126.897 9.94531 126.768 10.3008C126.643 10.6523 126.497 10.9453 126.329 11.1797C126.161 11.4102 125.983 11.5957 125.795 11.7363C125.608 11.873 125.415 11.9688 125.215 12.0234C125.016 12.082 124.825 12.1113 124.641 12.1113ZM124.641 11.0332C124.805 11.0332 124.971 10.9746 125.139 10.8574C125.307 10.7363 125.457 10.5352 125.59 10.2539C125.727 9.96875 125.838 9.58984 125.924 9.11719C126.01 8.64062 126.053 8.04688 126.053 7.33594C126.053 6.625 126.01 6.0332 125.924 5.56055C125.838 5.08398 125.727 4.70508 125.59 4.42383C125.457 4.13867 125.307 3.9375 125.139 3.82031C124.971 3.69922 124.805 3.63867 124.641 3.63867C124.477 3.63867 124.311 3.69922 124.143 3.82031C123.975 3.9375 123.823 4.13867 123.686 4.42383C123.553 4.70508 123.444 5.08398 123.358 5.56055C123.272 6.0332 123.229 6.625 123.229 7.33594C123.229 8.04688 123.272 8.64062 123.358 9.11719C123.444 9.58984 123.553 9.96875 123.686 10.2539C123.823 10.5352 123.975 10.7363 124.143 10.8574C124.311 10.9746 124.477 11.0332 124.641 11.0332ZM128.959 2.30859L131.895 7.20117L132.539 8.33789L132.51 7.21875V2.66602H133.594V12.1992L130.653 7.33594L130.014 6.31641L130.049 7.33594V12H128.959V2.30859ZM135.82 2.66602H136.91V12H135.82V2.66602ZM141.469 12.1113C141.094 12.1113 140.736 12.0273 140.396 11.8594C140.056 11.6914 139.76 11.418 139.506 11.0391C139.252 10.6602 139.049 10.168 138.896 9.5625C138.748 8.95312 138.674 8.21094 138.674 7.33594C138.674 6.46094 138.748 5.7207 138.896 5.11523C139.049 4.50586 139.252 4.01367 139.506 3.63867C139.76 3.25977 140.056 2.98633 140.396 2.81836C140.736 2.64648 141.094 2.56055 141.469 2.56055C141.683 2.56055 141.881 2.58008 142.06 2.61914C142.244 2.6582 142.431 2.71875 142.623 2.80078L142.136 3.74414C141.992 3.67773 141.818 3.64453 141.615 3.64453C141.396 3.64453 141.179 3.71094 140.965 3.84375C140.75 3.97266 140.556 4.18359 140.385 4.47656C140.213 4.76953 140.072 5.15039 139.963 5.61914C139.857 6.08789 139.804 6.66016 139.804 7.33594C139.804 8.01172 139.857 8.58398 139.963 9.05273C140.072 9.52148 140.213 9.90234 140.385 10.1953C140.556 10.4883 140.75 10.7012 140.965 10.834C141.179 10.9629 141.396 11.0273 141.615 11.0273C141.818 11.0273 141.992 10.9941 142.136 10.9277L142.623 11.8711C142.431 11.9531 142.244 12.0137 142.06 12.0527C141.881 12.0918 141.683 12.1113 141.469 12.1113ZM144.328 2.66602H145.417V10.9805H147.826V12H144.328V2.66602ZM149.243 2.66602H152.384V3.69727H150.333V7.2832H152.091V8.31445H150.333V10.9688H152.384V12H149.243V2.66602ZM154.3 10.5996C154.491 10.7129 154.69 10.8145 154.898 10.9043C155.108 10.9941 155.339 11.0391 155.589 11.0391C155.741 11.0391 155.888 11.0176 156.028 10.9746C156.169 10.9316 156.292 10.8652 156.398 10.7754C156.503 10.6855 156.587 10.5723 156.649 10.4355C156.712 10.2949 156.743 10.1289 156.743 9.9375C156.743 9.80859 156.726 9.67578 156.69 9.53906C156.659 9.40234 156.605 9.25586 156.526 9.09961C156.452 8.93945 156.353 8.76562 156.228 8.57812C156.106 8.39062 155.954 8.18164 155.771 7.95117L155.015 6.99609C154.827 6.75781 154.667 6.53125 154.534 6.31641C154.405 6.10156 154.3 5.89648 154.218 5.70117C154.136 5.50195 154.075 5.3125 154.036 5.13281C154.001 4.94922 153.983 4.76953 153.983 4.59375C153.983 4.30078 154.03 4.03125 154.124 3.78516C154.218 3.53516 154.355 3.32031 154.534 3.14062C154.714 2.95703 154.931 2.81445 155.185 2.71289C155.442 2.61133 155.733 2.56055 156.058 2.56055C156.315 2.56055 156.575 2.5957 156.837 2.66602C157.099 2.73242 157.355 2.83984 157.605 2.98828L157.136 3.89648C156.999 3.81445 156.851 3.74414 156.69 3.68555C156.534 3.62305 156.36 3.5918 156.169 3.5918C155.849 3.5918 155.593 3.68359 155.401 3.86719C155.21 4.04688 155.114 4.30273 155.114 4.63477C155.114 4.72461 155.124 4.81836 155.144 4.91602C155.163 5.00977 155.196 5.11328 155.243 5.22656C155.294 5.33984 155.36 5.46484 155.442 5.60156C155.528 5.73828 155.636 5.89258 155.765 6.06445L156.86 7.50586C157.001 7.69336 157.134 7.87695 157.259 8.05664C157.384 8.23242 157.491 8.41406 157.581 8.60156C157.671 8.78516 157.741 8.98047 157.792 9.1875C157.847 9.39062 157.874 9.61133 157.874 9.84961C157.874 10.2012 157.817 10.5176 157.704 10.7988C157.591 11.0762 157.433 11.3125 157.23 11.5078C157.026 11.7031 156.784 11.8535 156.503 11.959C156.226 12.0605 155.921 12.1113 155.589 12.1113C155.245 12.1113 154.917 12.0605 154.605 11.959C154.292 11.8574 154.023 11.7285 153.796 11.5723L154.3 10.5996Z" fill="black"/>
<path d="M18.5242 25.65C18.5242 25.3996 18.5434 25.1492 18.582 24.8989C18.6205 24.6485 18.6638 24.403 18.7119 24.1623C18.7601 23.9119 18.8034 23.6664 18.8419 23.4257C18.8901 23.1753 18.9142 22.925 18.9142 22.6746V22.6024C18.3942 22.5061 17.9079 22.3617 17.4554 22.1691C17.0124 21.9669 16.6273 21.7069 16.2999 21.3892C15.9725 21.0714 15.7125 20.6959 15.52 20.2626C15.337 19.8196 15.2455 19.3045 15.2455 18.7171C15.2455 18.6305 15.2407 18.5149 15.2311 18.3705C15.2311 18.2164 15.2455 18.072 15.2744 17.9372C15.3033 17.8024 15.3515 17.6868 15.4189 17.5906C15.4959 17.4846 15.6066 17.4317 15.7511 17.4317C15.8859 17.4317 15.9821 17.4461 16.0399 17.475C16.1073 17.5039 16.141 17.5906 16.141 17.735C16.141 17.8602 16.1266 17.9805 16.0977 18.0961C16.0688 18.2116 16.0399 18.3272 16.011 18.4427C15.9821 18.5486 15.9533 18.6642 15.9244 18.7894C15.8955 18.9049 15.881 19.0204 15.881 19.136C15.881 19.4826 15.9533 19.8245 16.0977 20.1615C16.2421 20.4889 16.4347 20.7777 16.6754 21.0281C16.9258 21.2784 17.2098 21.4806 17.5276 21.6347C17.8453 21.7888 18.1775 21.8658 18.5242 21.8658C18.5531 21.8658 18.5868 21.8658 18.6253 21.8658C18.6734 21.8658 18.7264 21.8658 18.7842 21.8658C18.8419 21.8562 18.8901 21.8513 18.9286 21.8513C18.9767 21.8513 19.0153 21.8513 19.0441 21.8513C19.2175 21.7358 19.3523 21.5384 19.4486 21.2592C19.5545 20.9703 19.6411 20.6525 19.7085 20.3059C19.7759 19.9496 19.8337 19.5789 19.8819 19.1938C19.93 18.8086 19.9926 18.462 20.0696 18.1538C20.1467 17.8361 20.2381 17.5761 20.344 17.3739C20.4596 17.1621 20.6137 17.0562 20.8062 17.0562C20.8159 17.0562 20.8351 17.0754 20.864 17.1139C20.8929 17.1428 20.9121 17.1669 20.9218 17.1861C20.9314 17.1958 20.941 17.2343 20.9507 17.3017C20.9603 17.3595 20.9699 17.4317 20.9796 17.5183C20.9892 17.5954 20.9988 17.6772 21.0084 17.7639C21.0277 17.8409 21.0421 17.9035 21.0518 17.9516V18.0094C21.0518 18.4716 20.9988 18.9242 20.8929 19.3671C20.7966 19.8004 20.6714 20.2289 20.5174 20.6525C20.3729 21.0666 20.2141 21.4806 20.0407 21.8947C19.8674 22.2991 19.7037 22.7131 19.5497 23.1368C19.4052 23.5508 19.28 23.9745 19.1741 24.4078C19.0778 24.8411 19.0297 25.2937 19.0297 25.7655C19.0297 26.1121 19.0538 26.4492 19.1019 26.7765C19.1597 27.1135 19.1886 27.4554 19.1886 27.802C19.0634 27.802 18.9575 27.7587 18.8708 27.672C18.7842 27.5854 18.7168 27.4746 18.6686 27.3398C18.6205 27.205 18.582 27.051 18.5531 26.8776C18.5338 26.7139 18.5194 26.5503 18.5097 26.3866C18.5097 26.2325 18.5097 26.0881 18.5097 25.9533C18.5194 25.8185 18.5242 25.7174 18.5242 25.65ZM21.8386 24.5089C21.8386 24.48 21.8386 24.4319 21.8386 24.3645C21.8386 24.2875 21.8338 24.2104 21.8242 24.1334C21.8242 24.0467 21.8242 23.9697 21.8242 23.9023C21.8242 23.8253 21.8242 23.7675 21.8242 23.729C21.8242 23.4594 21.8435 23.1705 21.882 22.8624C21.9205 22.5543 21.9783 22.2558 22.0553 21.9669C22.1323 21.6684 22.2334 21.3843 22.3586 21.1147C22.4934 20.8355 22.6571 20.5948 22.8497 20.3926C23.0519 20.1807 23.283 20.0122 23.543 19.8871C23.8029 19.7619 24.1014 19.6993 24.4384 19.6993C24.6599 19.6993 24.8284 19.7667 24.944 19.9015C25.0595 20.0267 25.1365 20.1855 25.1751 20.3781C25.2232 20.5707 25.2473 20.7729 25.2473 20.9847C25.2569 21.1966 25.2617 21.3843 25.2617 21.548C25.2617 21.9236 25.2232 22.3183 25.1462 22.7324C25.0691 23.1368 24.944 23.5075 24.7706 23.8445C24.5973 24.1815 24.3566 24.4608 24.0485 24.6822C23.75 24.9037 23.3745 25.0144 22.9219 25.0144C22.7871 25.0144 22.6715 25.0096 22.5753 25C22.479 24.9904 22.3923 24.9663 22.3153 24.9278C22.2382 24.8796 22.1612 24.8267 22.0842 24.7689C22.0071 24.7015 21.9253 24.6148 21.8386 24.5089ZM22.3442 24.2489C22.4308 24.3356 22.5319 24.3789 22.6475 24.3789C22.763 24.3789 22.8737 24.3789 22.9797 24.3789C23.3456 24.3789 23.6441 24.2875 23.8752 24.1045C24.1062 23.9119 24.2844 23.676 24.4096 23.3968C24.5444 23.1175 24.6358 22.8142 24.684 22.4869C24.7418 22.1498 24.7706 21.8369 24.7706 21.548C24.7706 21.4132 24.7706 21.2688 24.7706 21.1147C24.7803 20.951 24.7658 20.8018 24.7273 20.667C24.6984 20.5226 24.6407 20.407 24.554 20.3204C24.4673 20.2241 24.3373 20.1759 24.164 20.1759C24.164 20.33 24.1448 20.4455 24.1062 20.5226C24.0677 20.5996 24.0148 20.6525 23.9474 20.6814C23.8896 20.7103 23.8174 20.7296 23.7307 20.7392C23.6537 20.7392 23.567 20.7537 23.4707 20.7825C23.3841 20.8114 23.2974 20.8548 23.2108 20.9125C23.1241 20.9703 23.0471 21.0714 22.9797 21.2158C22.8256 21.6491 22.6764 22.068 22.5319 22.4724C22.3971 22.8672 22.3297 23.2861 22.3297 23.729C22.3297 23.7579 22.3297 23.7964 22.3297 23.8445C22.3297 23.883 22.3297 23.9312 22.3297 23.989C22.3393 24.0467 22.3442 24.0997 22.3442 24.1478C22.3442 24.1864 22.3442 24.2201 22.3442 24.2489ZM27.103 19.0782C26.9104 19.0782 26.7756 19.1167 26.6985 19.1938C26.6215 19.2708 26.5589 19.3526 26.5108 19.4393C26.4723 19.526 26.4337 19.6078 26.3952 19.6848C26.3567 19.7619 26.2845 19.8004 26.1786 19.8004C26.063 19.8004 25.9716 19.7811 25.9042 19.7426C25.8271 19.6945 25.7886 19.6078 25.7886 19.4826C25.7982 19.3575 25.8464 19.2371 25.933 19.1216C26.0197 19.006 26.1256 18.9049 26.2508 18.8182C26.3856 18.722 26.5252 18.6497 26.6697 18.6016C26.8141 18.5534 26.9585 18.539 27.103 18.5583C27.2378 18.5583 27.3629 18.5679 27.4785 18.5871C27.594 18.6064 27.6951 18.6449 27.7818 18.7027C27.8685 18.7605 27.9359 18.8423 27.984 18.9482C28.0321 19.0445 28.0562 19.1745 28.0562 19.3382V24.119L28.3018 23.8734C28.3114 23.8638 28.3547 23.7868 28.4317 23.6423C28.5184 23.4883 28.6147 23.3101 28.7206 23.1079C28.8265 22.9057 28.9324 22.6987 29.0384 22.4869C29.1539 22.275 29.2454 22.1017 29.3128 21.9669C29.5343 21.524 29.7124 21.0955 29.8472 20.6814C29.982 20.2578 30.0975 19.81 30.1938 19.3382C30.2131 19.2612 30.2564 19.2178 30.3238 19.2082C30.4009 19.189 30.4634 19.1793 30.5116 19.1793C30.5212 19.1793 30.5501 19.1841 30.5983 19.1938C30.6464 19.1938 30.6801 19.1938 30.6994 19.1938C30.6994 19.2708 30.6994 19.3863 30.6994 19.5404C30.709 19.6945 30.7186 19.8678 30.7282 20.0604C30.7379 20.2529 30.7475 20.4552 30.7571 20.667C30.7668 20.8692 30.7764 21.0666 30.786 21.2592C30.7956 21.4517 30.8053 21.6251 30.8149 21.7791C30.8245 21.9236 30.8293 22.0343 30.8293 22.1113C30.8293 22.1691 30.8342 22.275 30.8438 22.4291C30.863 22.5735 30.8919 22.7276 30.9304 22.8913C30.9786 23.0453 31.0412 23.185 31.1182 23.3101C31.1952 23.4353 31.306 23.4979 31.4504 23.4979C31.5852 23.4209 31.72 23.3294 31.8548 23.2235C31.9896 23.1175 32.1244 23.0116 32.2592 22.9057C32.4037 22.7902 32.5433 22.6891 32.6781 22.6024C32.8225 22.5061 32.9718 22.4339 33.1258 22.3858C33.2029 22.4339 33.2318 22.5061 33.2125 22.6024C33.1932 22.6987 33.1403 22.8094 33.0536 22.9346C32.967 23.0598 32.8562 23.1898 32.7214 23.3246C32.5866 23.4497 32.4374 23.5701 32.2737 23.6857C32.11 23.7916 31.9415 23.8782 31.7682 23.9456C31.6045 24.0034 31.4504 24.0227 31.306 24.0034C31.0267 24.0034 30.8101 23.9167 30.656 23.7434C30.5116 23.5701 30.4057 23.3631 30.3383 23.1224C30.2805 22.872 30.2468 22.612 30.2372 22.3424C30.2275 22.0728 30.2227 21.8417 30.2227 21.6491C30.1168 21.6491 30.0109 21.7358 29.905 21.9091C29.8087 22.0728 29.7076 22.2798 29.6017 22.5302C29.4957 22.7805 29.385 23.0501 29.2695 23.339C29.1539 23.6279 29.0287 23.8975 28.8939 24.1478C28.7591 24.3886 28.6147 24.5956 28.4606 24.7689C28.3162 24.9326 28.1573 25.0144 27.984 25.0144C27.8588 25.0144 27.7577 24.9807 27.6807 24.9133C27.6037 24.8459 27.5459 24.7593 27.5074 24.6534C27.4689 24.5474 27.4448 24.4367 27.4352 24.3212C27.4255 24.2056 27.4207 24.0949 27.4207 23.989V19.4538C27.4207 19.4249 27.4111 19.3912 27.3918 19.3526C27.3726 19.3045 27.3485 19.2612 27.3196 19.2227C27.2907 19.1841 27.257 19.1504 27.2185 19.1216C27.18 19.0927 27.1415 19.0782 27.103 19.0782ZM33.3639 24.5089C33.4602 24.1238 33.5276 23.7771 33.5661 23.469C33.6142 23.1513 33.6431 22.8431 33.6527 22.5446C33.672 22.2461 33.6768 21.9332 33.6672 21.6058C33.6672 21.2784 33.6672 20.9077 33.6672 20.4937C33.5131 20.4937 33.3976 20.5033 33.3205 20.5226C33.2531 20.5418 33.205 20.5659 33.1761 20.5948C33.1472 20.614 33.128 20.6381 33.1183 20.667C33.1087 20.6959 33.0894 20.7248 33.0606 20.7537C33.0413 20.7729 32.998 20.7922 32.9306 20.8114C32.8632 20.8307 32.7572 20.8403 32.6128 20.8403C32.5262 20.8403 32.4636 20.8066 32.425 20.7392C32.3865 20.6718 32.3673 20.5948 32.3673 20.5081C32.3673 20.4311 32.4202 20.3492 32.5262 20.2626C32.6224 20.1759 32.738 20.0893 32.8728 20.0026C33.0172 19.9159 33.1617 19.8437 33.3061 19.7859C33.4602 19.7282 33.5901 19.6993 33.6961 19.6993C33.7346 19.6993 33.7875 19.7185 33.8549 19.7571C33.932 19.7859 34.0042 19.8293 34.0716 19.8871C34.139 19.9352 34.192 19.9882 34.2305 20.0459C34.2786 20.1037 34.3027 20.1615 34.3027 20.2192V22.2269C34.399 22.0824 34.553 21.885 34.7649 21.6347C34.9767 21.3843 35.2126 21.1388 35.4726 20.8981C35.7326 20.6477 35.9974 20.4311 36.267 20.2481C36.5366 20.0652 36.7773 19.9737 36.9891 19.9737C37.278 19.9737 37.4802 20.07 37.5958 20.2626C37.7113 20.4455 37.7691 20.6766 37.7691 20.9559C37.6535 20.9559 37.5621 20.9366 37.4947 20.8981C37.4273 20.8596 37.3647 20.8162 37.3069 20.7681C37.2588 20.72 37.2058 20.6814 37.148 20.6525C37.0903 20.614 37.0132 20.5948 36.9169 20.5948C36.6088 20.6525 36.3199 20.8066 36.0503 21.057C35.7807 21.3073 35.5304 21.601 35.2993 21.938C35.0778 22.275 34.8756 22.6313 34.6927 23.0068C34.5193 23.3823 34.3653 23.7242 34.2305 24.0323C34.0957 24.3404 33.9849 24.5908 33.8983 24.7833C33.8212 24.9759 33.7731 25.053 33.7538 25.0144C33.6575 25.0144 33.5661 24.9711 33.4794 24.8845C33.4024 24.7882 33.3639 24.6774 33.3639 24.5523V24.5089ZM47.3878 20.3204C47.3782 20.3204 47.3685 20.3252 47.3589 20.3348C47.3589 20.3348 47.3541 20.3348 47.3445 20.3348C47.3445 20.3444 47.3348 20.3492 47.3156 20.3492C47.2867 20.3589 47.2385 20.3974 47.1711 20.4648C47.1134 20.5322 47.0797 20.5707 47.07 20.5803L45.6835 23.4979C45.6835 23.5075 45.6546 23.5508 45.5968 23.6279C45.5487 23.7049 45.4861 23.7916 45.409 23.8879C45.332 23.9842 45.255 24.0708 45.178 24.1478C45.1009 24.2152 45.0383 24.2489 44.9902 24.2489H44.9613C44.9517 24.2489 44.942 24.2489 44.9324 24.2489C44.9132 24.2393 44.8843 24.2201 44.8458 24.1912C44.8169 24.1527 44.7976 24.1286 44.788 24.119C44.788 24.0901 44.788 24.0467 44.788 23.989C44.788 23.9312 44.788 23.8734 44.788 23.8156C44.788 23.7482 44.788 23.6857 44.788 23.6279C44.788 23.5605 44.788 23.5171 44.788 23.4979C44.788 23.209 44.8024 22.925 44.8313 22.6457C44.8602 22.3569 44.8891 22.0728 44.918 21.7936C44.9565 21.5047 44.9902 21.2207 45.0191 20.9414C45.048 20.6622 45.0624 20.3781 45.0624 20.0893C45.0624 20.0604 45.0624 20.0122 45.0624 19.9448C45.0624 19.8678 45.0576 19.7908 45.048 19.7137C45.048 19.6271 45.048 19.55 45.048 19.4826C45.048 19.4152 45.048 19.3671 45.048 19.3382C45.0769 19.2034 45.0528 19.1264 44.9757 19.1071C44.8987 19.0782 44.8217 19.0638 44.7447 19.0638C44.5521 19.0638 44.4221 19.083 44.3547 19.1216C44.2873 19.1504 44.2343 19.1841 44.1958 19.2227C44.1477 19.2612 44.0899 19.2997 44.0225 19.3382C43.9551 19.3671 43.8203 19.3815 43.6181 19.3815C43.4448 19.3815 43.3581 19.2852 43.3581 19.0927C43.3581 18.9675 43.4255 18.8568 43.5603 18.7605C43.6855 18.6642 43.8347 18.5871 44.008 18.5294C44.1814 18.462 44.3547 18.4138 44.528 18.3849C44.7013 18.3464 44.8361 18.3272 44.9324 18.3272C45.048 18.3272 45.1635 18.3657 45.2791 18.4427C45.4042 18.5101 45.4957 18.5968 45.5535 18.7027C45.5535 18.7605 45.5535 18.8568 45.5535 18.9916C45.5631 19.1264 45.5679 19.2708 45.5679 19.4249C45.5679 19.5789 45.5679 19.7282 45.5679 19.8726C45.5679 20.0074 45.5679 20.1037 45.5679 20.1615C45.5679 20.5659 45.5439 20.9559 45.4957 21.3314C45.4572 21.7069 45.4379 22.0921 45.4379 22.4869V22.7324C45.6979 22.1739 45.9723 21.601 46.2612 21.0136C46.5501 20.4263 46.8582 19.8678 47.1856 19.3382C47.1952 19.3189 47.2145 19.2949 47.2434 19.266C47.2819 19.2275 47.3059 19.2034 47.3156 19.1938H47.3878C47.4744 19.1938 47.5515 19.2227 47.6189 19.2804C47.6863 19.3286 47.7392 19.3912 47.7778 19.4682C47.8259 19.5356 47.8596 19.6174 47.8789 19.7137C47.9077 19.8004 47.9318 19.8822 47.9511 19.9593C47.9511 19.9978 47.9607 20.0893 47.98 20.2337C47.9992 20.3685 48.0233 20.5274 48.0522 20.7103C48.0811 20.8836 48.1051 21.0762 48.1244 21.2881C48.1533 21.4903 48.1822 21.6828 48.2111 21.8658C48.2399 22.0391 48.264 22.198 48.2833 22.3424C48.3025 22.4772 48.317 22.5639 48.3266 22.6024C48.3362 22.6698 48.3603 22.7805 48.3988 22.9346C48.447 23.0887 48.4999 23.2524 48.5577 23.4257C48.6155 23.599 48.6684 23.7675 48.7166 23.9312C48.7744 24.0853 48.8129 24.1912 48.8321 24.2489C48.8899 24.2201 48.9573 24.1864 49.0343 24.1478C49.121 24.0997 49.1788 24.0467 49.2077 23.989C49.2751 23.8734 49.3569 23.7242 49.4532 23.5412C49.5591 23.3583 49.6554 23.1801 49.7421 23.0068C49.8383 22.8335 49.9202 22.6842 49.9876 22.5591C50.055 22.4243 50.0887 22.3521 50.0887 22.3424V22.1113L50.7242 19.4538C50.7242 19.4538 50.7194 19.4249 50.7098 19.3671C50.7001 19.2997 50.6953 19.2323 50.6953 19.1649C50.6953 19.0879 50.7049 19.0156 50.7242 18.9482C50.7531 18.8808 50.7964 18.8423 50.8542 18.8327L50.9842 18.9627C50.9842 18.9723 50.9842 19.0012 50.9842 19.0493C50.9842 19.0975 50.9842 19.1504 50.9842 19.2082C50.9938 19.266 50.9986 19.3286 50.9986 19.396C51.0083 19.4538 51.0131 19.4971 51.0131 19.526C51.0131 20.1037 50.9649 20.6574 50.8686 21.187C50.7723 21.7069 50.6424 22.2654 50.4787 22.8624C50.4209 22.9779 50.339 23.1561 50.2331 23.3968C50.1272 23.6375 50.002 23.8782 49.8576 24.119C49.7228 24.3597 49.5735 24.5715 49.4099 24.7545C49.2462 24.9374 49.0777 25.0289 48.9043 25.0289C48.6732 25.0289 48.4807 24.9133 48.3266 24.6822C48.1822 24.4512 48.0618 24.1623 47.9655 23.8156C47.8692 23.4594 47.797 23.079 47.7489 22.6746C47.7104 22.2702 47.6718 21.8947 47.6333 21.548C47.5948 21.1918 47.5563 20.8981 47.5178 20.667C47.4889 20.4359 47.4456 20.3204 47.3878 20.3204ZM55.1652 23.2379C55.0208 23.4112 54.8523 23.5942 54.6597 23.7868C54.4768 23.9793 54.2746 24.1575 54.0531 24.3212C53.8413 24.4849 53.615 24.6245 53.3743 24.74C53.1432 24.8459 52.9025 24.8989 52.6521 24.8989C52.1418 24.8989 51.8866 24.6534 51.8866 24.1623C51.8866 23.9601 51.9685 23.6953 52.1321 23.3679C52.3055 23.0309 52.5269 22.6794 52.7965 22.3135C53.0661 21.9476 53.3646 21.5962 53.692 21.2592C54.0194 20.9125 54.3468 20.6285 54.6742 20.407C55.0016 20.1759 55.3001 20.0315 55.5697 19.9737C55.8489 19.9159 56.0752 19.9978 56.2485 20.2192C56.2485 20.4792 56.2292 20.7392 56.1907 20.9992C56.1522 21.2592 56.1137 21.5192 56.0752 21.7791C56.0367 22.0295 55.9981 22.2798 55.9596 22.5302C55.9211 22.7805 55.9019 23.0357 55.9019 23.2957C55.9019 23.3535 55.9067 23.4449 55.9163 23.5701C55.9356 23.6857 55.9596 23.806 55.9885 23.9312C56.027 24.0467 56.0752 24.1527 56.133 24.2489C56.1907 24.3356 56.2678 24.3789 56.364 24.3789C56.5951 24.3789 56.7829 24.35 56.9273 24.2923C57.0814 24.2345 57.2114 24.1671 57.3173 24.0901C57.4329 24.0034 57.5291 23.9071 57.6062 23.8012C57.6928 23.6953 57.7795 23.5894 57.8662 23.4834C57.9624 23.3775 58.0684 23.2764 58.1839 23.1801C58.2995 23.0838 58.4487 23.0068 58.6317 22.949C58.6317 22.949 58.6317 22.9635 58.6317 22.9924C58.6317 23.0213 58.6317 23.0453 58.6317 23.0646C58.6317 23.3053 58.5594 23.546 58.415 23.7868C58.2706 24.0179 58.0876 24.2249 57.8662 24.4078C57.6447 24.5908 57.3943 24.74 57.1151 24.8556C56.8455 24.9615 56.5807 25.0144 56.3207 25.0144C56.0993 25.0144 55.9211 24.9519 55.7863 24.8267C55.6515 24.7015 55.5408 24.5523 55.4541 24.3789C55.3771 24.2056 55.3193 24.0179 55.2808 23.8156C55.2423 23.6038 55.2038 23.4112 55.1652 23.2379ZM55.4252 21.3458C55.5215 21.0281 55.5552 20.8114 55.5263 20.6959C55.5071 20.5803 55.4397 20.537 55.3241 20.5659C55.2086 20.5851 55.0593 20.667 54.8764 20.8114C54.6934 20.9462 54.496 21.1147 54.2842 21.3169C54.0724 21.5095 53.8605 21.7262 53.6487 21.9669C53.4369 22.2076 53.2395 22.4387 53.0565 22.6602C52.8736 22.872 52.7243 23.0646 52.6088 23.2379C52.4932 23.4112 52.421 23.5364 52.3921 23.6134C52.3343 23.8349 52.3247 24.0034 52.3632 24.119C52.4114 24.2345 52.4788 24.3163 52.5654 24.3645C52.6617 24.403 52.7628 24.4078 52.8688 24.3789C52.9843 24.35 53.0806 24.3067 53.1576 24.2489C53.3213 24.1045 53.5283 23.9119 53.7787 23.6712C54.029 23.4209 54.2698 23.1561 54.5009 22.8768C54.7416 22.5976 54.9486 22.3232 55.1219 22.0536C55.2952 21.7743 55.3963 21.5384 55.4252 21.3458ZM59.1874 24.5089C59.2837 24.1238 59.3511 23.7771 59.3896 23.469C59.4378 23.1513 59.4667 22.8431 59.4763 22.5446C59.4956 22.2461 59.5004 21.9332 59.4907 21.6058C59.4907 21.2784 59.4907 20.9077 59.4907 20.4937C59.3367 20.4937 59.2211 20.5033 59.1441 20.5226C59.0767 20.5418 59.0286 20.5659 58.9997 20.5948C58.9708 20.614 58.9515 20.6381 58.9419 20.667C58.9323 20.6959 58.913 20.7248 58.8841 20.7537C58.8649 20.7729 58.8215 20.7922 58.7541 20.8114C58.6867 20.8307 58.5808 20.8403 58.4364 20.8403C58.3497 20.8403 58.2871 20.8066 58.2486 20.7392C58.2101 20.6718 58.1908 20.5948 58.1908 20.5081C58.1908 20.4311 58.2438 20.3492 58.3497 20.2626C58.446 20.1759 58.5616 20.0893 58.6964 20.0026C58.8408 19.9159 58.9852 19.8437 59.1297 19.7859C59.2837 19.7282 59.4137 19.6993 59.5196 19.6993C59.5581 19.6993 59.6111 19.7185 59.6785 19.7571C59.7555 19.7859 59.8278 19.8293 59.8952 19.8871C59.9626 19.9352 60.0155 19.9882 60.054 20.0459C60.1022 20.1037 60.1263 20.1615 60.1263 20.2192V22.2269C60.2225 22.0824 60.3766 21.885 60.5884 21.6347C60.8003 21.3843 61.0362 21.1388 61.2962 20.8981C61.5561 20.6477 61.8209 20.4311 62.0905 20.2481C62.3602 20.0652 62.6009 19.9737 62.8127 19.9737C63.1016 19.9737 63.3038 20.07 63.4193 20.2626C63.5349 20.4455 63.5927 20.6766 63.5927 20.9559C63.4771 20.9559 63.3856 20.9366 63.3182 20.8981C63.2508 20.8596 63.1882 20.8162 63.1305 20.7681C63.0823 20.72 63.0294 20.6814 62.9716 20.6525C62.9138 20.614 62.8368 20.5948 62.7405 20.5948C62.4324 20.6525 62.1435 20.8066 61.8739 21.057C61.6043 21.3073 61.3539 21.601 61.1228 21.938C60.9014 22.275 60.6992 22.6313 60.5162 23.0068C60.3429 23.3823 60.1888 23.7242 60.054 24.0323C59.9192 24.3404 59.8085 24.5908 59.7218 24.7833C59.6448 24.9759 59.5967 25.053 59.5774 25.0144C59.4811 25.0144 59.3896 24.9711 59.303 24.8845C59.2259 24.7882 59.1874 24.6774 59.1874 24.5523V24.5089ZM65.3184 24.119C65.1354 24.119 64.9813 24.0612 64.8562 23.9456C64.731 23.8301 64.6251 23.6905 64.5384 23.5268C64.4614 23.3631 64.3988 23.1898 64.3506 23.0068C64.3121 22.8239 64.2929 22.665 64.2929 22.5302C64.2929 22.2317 64.3458 21.9236 64.4517 21.6058C64.5673 21.2784 64.7165 20.9703 64.8995 20.6814C65.0921 20.3926 65.3087 20.1326 65.5494 19.9015C65.7998 19.6608 66.0598 19.473 66.3294 19.3382C66.4449 19.2804 66.546 19.2515 66.6327 19.2515C66.729 19.2419 66.8108 19.2371 66.8782 19.2371C66.9456 19.2275 66.9938 19.1986 67.0227 19.1504C67.0612 19.0927 67.0804 18.9867 67.0804 18.8327V16.4206C67.0804 16.3436 67.1238 16.2666 67.2104 16.1896C67.2971 16.1029 67.3789 16.0596 67.456 16.0596C67.5041 16.0596 67.5426 16.0836 67.5715 16.1318C67.61 16.1703 67.6389 16.2184 67.6582 16.2762C67.6774 16.334 67.6919 16.3966 67.7015 16.464C67.7111 16.5314 67.7159 16.5795 67.7159 16.6084C67.7159 17.6965 67.7015 18.7701 67.6726 19.8293C67.6437 20.8788 67.6293 21.9621 67.6293 23.079C67.7063 23.079 67.7834 23.0646 67.8604 23.0357C67.9374 23.0068 68.0193 22.9731 68.1059 22.9346C68.1926 22.8961 68.2744 22.8576 68.3515 22.8191C68.4381 22.7805 68.52 22.7517 68.597 22.7324C68.597 22.742 68.597 22.7613 68.597 22.7902C68.6066 22.8191 68.6114 22.8431 68.6114 22.8624C68.6114 22.9972 68.5633 23.1079 68.467 23.1946C68.3803 23.2716 68.2744 23.3438 68.1492 23.4112C68.0337 23.4786 67.9182 23.546 67.8026 23.6134C67.6967 23.6808 67.6245 23.7675 67.586 23.8734C67.5763 23.8927 67.5667 23.9601 67.5571 24.0756C67.5474 24.1912 67.5282 24.3212 67.4993 24.4656C67.4704 24.61 67.4271 24.74 67.3693 24.8556C67.3115 24.9615 67.2393 25.0144 67.1527 25.0144C67.0179 25.0144 66.9264 24.9759 66.8782 24.8989C66.8397 24.8219 66.8253 24.7304 66.8349 24.6245C66.8445 24.5186 66.859 24.4175 66.8782 24.3212C66.9071 24.2249 66.9216 24.1575 66.9216 24.119H65.3184ZM64.7984 22.5302C64.7984 22.8479 64.8995 23.1127 65.1017 23.3246C65.3039 23.5268 65.5639 23.6279 65.8816 23.6279C65.949 23.6279 66.0261 23.6279 66.1127 23.6279C66.209 23.6279 66.3053 23.6231 66.4016 23.6134C66.4979 23.5942 66.5846 23.5653 66.6616 23.5268C66.7386 23.4883 66.7964 23.4305 66.8349 23.3535C66.8156 23.0935 66.8108 22.8479 66.8205 22.6168C66.8397 22.3761 66.859 22.1402 66.8782 21.9091C66.8975 21.6684 66.9167 21.4325 66.936 21.2014C66.9553 20.9607 66.9649 20.7103 66.9649 20.4503C66.9649 20.3348 66.9408 20.2433 66.8927 20.1759C66.8542 20.1085 66.7723 20.0748 66.6471 20.0748C66.3872 20.0748 66.1416 20.1615 65.9105 20.3348C65.6891 20.4985 65.4917 20.7103 65.3184 20.9703C65.1547 21.2207 65.0247 21.4903 64.9284 21.7791C64.8417 22.0584 64.7984 22.3087 64.7984 22.5302ZM69.7738 24.5089C69.8701 24.1238 69.9375 23.7771 69.976 23.469C70.0242 23.1513 70.0531 22.8431 70.0627 22.5446C70.082 22.2461 70.0868 21.9332 70.0772 21.6058C70.0772 21.2784 70.0772 20.9077 70.0772 20.4937C69.9231 20.4937 69.8075 20.5033 69.7305 20.5226C69.6631 20.5418 69.615 20.5659 69.5861 20.5948C69.5572 20.614 69.5379 20.6381 69.5283 20.667C69.5187 20.6959 69.4994 20.7248 69.4705 20.7537C69.4513 20.7729 69.4079 20.7922 69.3405 20.8114C69.2731 20.8307 69.1672 20.8403 69.0228 20.8403C68.9361 20.8403 68.8735 20.8066 68.835 20.7392C68.7965 20.6718 68.7772 20.5948 68.7772 20.5081C68.7772 20.4311 68.8302 20.3492 68.9361 20.2626C69.0324 20.1759 69.148 20.0893 69.2828 20.0026C69.4272 19.9159 69.5716 19.8437 69.7161 19.7859C69.8701 19.7282 70.0001 19.6993 70.106 19.6993C70.1446 19.6993 70.1975 19.7185 70.2649 19.7571C70.3419 19.7859 70.4142 19.8293 70.4816 19.8871C70.549 19.9352 70.6019 19.9882 70.6404 20.0459C70.6886 20.1037 70.7127 20.1615 70.7127 20.2192V22.2269C70.8089 22.0824 70.963 21.885 71.1748 21.6347C71.3867 21.3843 71.6226 21.1388 71.8826 20.8981C72.1426 20.6477 72.4073 20.4311 72.677 20.2481C72.9466 20.0652 73.1873 19.9737 73.3991 19.9737C73.688 19.9737 73.8902 20.07 74.0057 20.2626C74.1213 20.4455 74.1791 20.6766 74.1791 20.9559C74.0635 20.9559 73.972 20.9366 73.9046 20.8981C73.8372 20.8596 73.7747 20.8162 73.7169 20.7681C73.6687 20.72 73.6158 20.6814 73.558 20.6525C73.5002 20.614 73.4232 20.5948 73.3269 20.5948C73.0188 20.6525 72.7299 20.8066 72.4603 21.057C72.1907 21.3073 71.9403 21.601 71.7093 21.938C71.4878 22.275 71.2856 22.6313 71.1026 23.0068C70.9293 23.3823 70.7752 23.7242 70.6404 24.0323C70.5056 24.3404 70.3949 24.5908 70.3082 24.7833C70.2312 24.9759 70.1831 25.053 70.1638 25.0144C70.0675 25.0144 69.976 24.9711 69.8894 24.8845C69.8124 24.7882 69.7738 24.6774 69.7738 24.5523V24.5089ZM74.8937 24.5089C74.8937 24.48 74.8937 24.4319 74.8937 24.3645C74.8937 24.2875 74.8889 24.2104 74.8793 24.1334C74.8793 24.0467 74.8793 23.9697 74.8793 23.9023C74.8793 23.8253 74.8793 23.7675 74.8793 23.729C74.8793 23.4594 74.8985 23.1705 74.9371 22.8624C74.9756 22.5543 75.0333 22.2558 75.1104 21.9669C75.1874 21.6684 75.2885 21.3843 75.4137 21.1147C75.5485 20.8355 75.7122 20.5948 75.9048 20.3926C76.107 20.1807 76.3381 20.0122 76.598 19.8871C76.858 19.7619 77.1565 19.6993 77.4935 19.6993C77.715 19.6993 77.8835 19.7667 77.999 19.9015C78.1146 20.0267 78.1916 20.1855 78.2301 20.3781C78.2783 20.5707 78.3024 20.7729 78.3024 20.9847C78.312 21.1966 78.3168 21.3843 78.3168 21.548C78.3168 21.9236 78.2783 22.3183 78.2013 22.7324C78.1242 23.1368 77.999 23.5075 77.8257 23.8445C77.6524 24.1815 77.4117 24.4608 77.1036 24.6822C76.8051 24.9037 76.4295 25.0144 75.977 25.0144C75.8422 25.0144 75.7266 25.0096 75.6303 25C75.534 24.9904 75.4474 24.9663 75.3704 24.9278C75.2933 24.8796 75.2163 24.8267 75.1393 24.7689C75.0622 24.7015 74.9804 24.6148 74.8937 24.5089ZM75.3992 24.2489C75.4859 24.3356 75.587 24.3789 75.7026 24.3789C75.8181 24.3789 75.9288 24.3789 76.0347 24.3789C76.4006 24.3789 76.6991 24.2875 76.9302 24.1045C77.1613 23.9119 77.3395 23.676 77.4646 23.3968C77.5994 23.1175 77.6909 22.8142 77.7391 22.4869C77.7968 22.1498 77.8257 21.8369 77.8257 21.548C77.8257 21.4132 77.8257 21.2688 77.8257 21.1147C77.8354 20.951 77.8209 20.8018 77.7824 20.667C77.7535 20.5226 77.6957 20.407 77.6091 20.3204C77.5224 20.2241 77.3924 20.1759 77.2191 20.1759C77.2191 20.33 77.1998 20.4455 77.1613 20.5226C77.1228 20.5996 77.0699 20.6525 77.0025 20.6814C76.9447 20.7103 76.8725 20.7296 76.7858 20.7392C76.7088 20.7392 76.6221 20.7537 76.5258 20.7825C76.4392 20.8114 76.3525 20.8548 76.2658 20.9125C76.1792 20.9703 76.1021 21.0714 76.0347 21.2158C75.8807 21.6491 75.7314 22.068 75.587 22.4724C75.4522 22.8672 75.3848 23.2861 75.3848 23.729C75.3848 23.7579 75.3848 23.7964 75.3848 23.8445C75.3848 23.883 75.3848 23.9312 75.3848 23.989C75.3944 24.0467 75.3992 24.0997 75.3992 24.1478C75.3992 24.1864 75.3992 24.2201 75.3992 24.2489ZM79.5081 24.8845C79.4311 24.8074 79.3877 24.7352 79.3781 24.6678C79.3685 24.6004 79.3637 24.5234 79.3637 24.4367C79.3637 24.4078 79.3637 24.3693 79.3637 24.3212C79.3733 24.273 79.3781 24.2489 79.3781 24.2489C79.4648 23.7771 79.5466 23.3342 79.6236 22.9202C79.7103 22.5061 79.7825 22.1017 79.8403 21.7069C79.8981 21.3025 79.9414 20.8933 79.9703 20.4792C79.9992 20.0652 80.0136 19.6174 80.0136 19.136C80.0136 19.0782 80.0136 18.9723 80.0136 18.8182C80.0136 18.6546 80.0088 18.4812 79.9992 18.2983C79.9992 18.1057 79.9992 17.9324 79.9992 17.7783C79.9992 17.6146 79.9992 17.5039 79.9992 17.4461C79.9895 17.3595 79.9462 17.3161 79.8692 17.3161C79.8018 17.3065 79.744 17.3017 79.6959 17.3017C79.5514 17.3017 79.4262 17.3113 79.3203 17.3306C79.224 17.3402 79.1374 17.3643 79.0603 17.4028C78.9833 17.4317 78.9159 17.475 78.8581 17.5328C78.7907 17.5906 78.7185 17.658 78.6415 17.735C78.6126 17.735 78.5693 17.7398 78.5115 17.7494C78.4441 17.7494 78.4008 17.7494 78.3815 17.7494C78.3045 17.7494 78.2226 17.7446 78.136 17.735C78.0397 17.7157 77.9915 17.6531 77.9915 17.5472C77.9915 17.5376 77.9963 17.528 78.006 17.5183C78.006 17.4991 78.006 17.4895 78.006 17.4895C78.1504 17.3065 78.29 17.1524 78.4248 17.0273C78.55 16.9021 78.6848 16.8058 78.8292 16.7384C78.9737 16.671 79.1374 16.6229 79.3203 16.594C79.5033 16.5651 79.7151 16.5506 79.9558 16.5506C80.1195 16.5506 80.2447 16.5892 80.3314 16.6662C80.4276 16.7432 80.495 16.8443 80.5336 16.9695C80.5817 17.085 80.6106 17.2198 80.6202 17.3739C80.6299 17.5183 80.6347 17.6628 80.6347 17.8072C80.6347 17.8746 80.6347 17.9805 80.6347 18.125C80.6347 18.2598 80.6347 18.4138 80.6347 18.5871C80.6347 18.7605 80.6299 18.9434 80.6202 19.136C80.6202 19.3286 80.6154 19.5115 80.6058 19.6848C80.6058 19.8582 80.601 20.017 80.5913 20.1615C80.5913 20.2963 80.5913 20.3974 80.5913 20.4648H80.7647C80.7935 20.4263 80.8561 20.3589 80.9524 20.2626C81.0487 20.1663 81.1546 20.0652 81.2702 19.9593C81.3954 19.8533 81.5205 19.7619 81.6457 19.6848C81.7805 19.6078 81.9057 19.5693 82.0212 19.5693C82.1753 19.5693 82.3197 19.6319 82.4545 19.7571C82.599 19.8726 82.7241 20.0315 82.8301 20.2337C82.9456 20.4263 83.0467 20.6429 83.1334 20.8836C83.2297 21.1244 83.3067 21.3603 83.3645 21.5914C83.4222 21.8225 83.4656 22.0343 83.4945 22.2269C83.533 22.4195 83.5522 22.5735 83.5522 22.6891C83.5522 23.0068 83.4656 23.3053 83.2922 23.5846C83.1189 23.8638 82.8975 24.1093 82.6279 24.3212C82.3679 24.533 82.0742 24.7015 81.7468 24.8267C81.4291 24.9519 81.1257 25.0144 80.8369 25.0144C80.7117 25.0144 80.5962 25.0096 80.4902 25C80.3939 25 80.2928 25 80.1869 25C80.0906 24.9904 79.9847 24.9759 79.8692 24.9567C79.7633 24.9374 79.6429 24.9133 79.5081 24.8845ZM81.8912 20.2192C81.6024 20.4696 81.3472 20.7681 81.1257 21.1147C80.9043 21.4517 80.7165 21.8128 80.5625 22.198C80.4084 22.5831 80.2928 22.9779 80.2158 23.3823C80.1484 23.7868 80.1147 24.1767 80.1147 24.5523C80.3843 24.5523 80.6828 24.5186 81.0102 24.4512C81.3376 24.3838 81.6409 24.2778 81.9201 24.1334C82.209 23.9793 82.4497 23.7819 82.6423 23.5412C82.8349 23.2909 82.9312 22.9827 82.9312 22.6168C82.9312 22.4243 82.9119 22.2124 82.8734 21.9813C82.8349 21.7406 82.7723 21.5095 82.6856 21.2881C82.6086 21.057 82.5027 20.8451 82.3679 20.6525C82.2427 20.46 82.0838 20.3155 81.8912 20.2192ZM84.4691 23.1946C84.4017 23.2331 84.3487 23.2427 84.3102 23.2235C84.2717 23.2042 84.2428 23.1753 84.2236 23.1368C84.2139 23.0983 84.2043 23.055 84.1947 23.0068C84.1947 22.949 84.1947 22.9105 84.1947 22.8913C84.1947 22.6987 84.2187 22.5831 84.2669 22.5446C84.315 22.4965 84.3776 22.4676 84.4547 22.458C84.5317 22.4387 84.6135 22.4146 84.7002 22.3858C84.7868 22.3569 84.8687 22.2654 84.9457 22.1113C85.0613 21.8706 85.1624 21.6203 85.249 21.3603C85.3453 21.0907 85.4609 20.8403 85.5957 20.6092C85.7305 20.3781 85.899 20.1904 86.1012 20.0459C86.313 19.9015 86.6019 19.8293 86.9678 19.8293C87.0256 19.8293 87.0882 19.8341 87.1556 19.8437C87.2326 19.8533 87.3 19.8726 87.3578 19.9015C87.4252 19.9208 87.4781 19.9593 87.5166 20.017C87.5648 20.0652 87.5889 20.1326 87.5889 20.2192C87.5889 20.4215 87.5359 20.6044 87.43 20.7681C87.3337 20.9222 87.2085 21.0666 87.0545 21.2014C86.91 21.3266 86.7511 21.4469 86.5778 21.5625C86.4045 21.678 86.2456 21.7888 86.1012 21.8947C85.9568 22.0006 85.8316 22.1113 85.7257 22.2269C85.6294 22.3424 85.5812 22.4676 85.5812 22.6024V23.989C85.5812 24.0949 85.6197 24.1815 85.6968 24.2489C85.7834 24.3067 85.8797 24.3549 85.9856 24.3934C86.0916 24.4319 86.2023 24.4608 86.3178 24.48C86.4334 24.4993 86.5201 24.5089 86.5778 24.5089C86.8089 24.5089 87.04 24.4704 87.2711 24.3934C87.5022 24.3067 87.7237 24.2008 87.9355 24.0756C88.157 23.9504 88.364 23.8156 88.5566 23.6712C88.7491 23.5171 88.9321 23.3727 89.1054 23.2379C89.1632 23.1898 89.2113 23.1416 89.2498 23.0935C89.298 23.0357 89.3413 22.9827 89.3798 22.9346C89.428 22.8865 89.4761 22.8479 89.5243 22.8191C89.582 22.7805 89.6543 22.7517 89.7409 22.7324C89.7409 22.742 89.7409 22.7613 89.7409 22.7902C89.7409 22.8191 89.7409 22.8431 89.7409 22.8624C89.7409 22.9394 89.7313 23.0068 89.712 23.0646C89.7024 23.1224 89.6687 23.1801 89.6109 23.2379C89.3991 23.4786 89.1728 23.7049 88.9321 23.9167C88.6914 24.1286 88.4362 24.3163 88.1666 24.48C87.897 24.6437 87.6129 24.7737 87.3144 24.87C87.0159 24.9663 86.6982 25.0144 86.3612 25.0144C86.0242 25.0144 85.7642 24.9663 85.5812 24.87C85.3983 24.7737 85.2539 24.6341 85.1479 24.4512C85.0516 24.2682 84.9842 24.0516 84.9457 23.8012C84.9072 23.5508 84.8639 23.2812 84.8157 22.9924L84.4691 23.1946ZM86.3323 20.9559C86.3323 20.9366 86.313 20.9414 86.2745 20.9703C86.2456 20.9896 86.2071 21.0184 86.159 21.057C86.1205 21.0955 86.0916 21.134 86.0723 21.1725C86.053 21.2014 86.053 21.2158 86.0723 21.2158C86.1205 21.2255 86.1782 21.1966 86.2456 21.1292C86.313 21.0618 86.3419 21.004 86.3323 20.9559ZM97.1642 24.5089C97.1642 24.48 97.1642 24.4319 97.1642 24.3645C97.1642 24.2875 97.1594 24.2104 97.1498 24.1334C97.1498 24.0467 97.1498 23.9697 97.1498 23.9023C97.1498 23.8253 97.1498 23.7675 97.1498 23.729C97.1498 23.4497 97.1739 23.1801 97.222 22.9202C97.2701 22.6505 97.3231 22.3858 97.3809 22.1258C97.4483 21.8562 97.5061 21.5866 97.5542 21.3169C97.6023 21.0473 97.6264 20.7729 97.6264 20.4937C97.5109 20.4937 97.3712 20.5466 97.2076 20.6525C97.0535 20.7585 96.8898 20.8788 96.7165 21.0136C96.5432 21.1484 96.3795 21.2881 96.2254 21.4325C96.081 21.5673 95.9702 21.6684 95.8932 21.7358C95.8932 21.7358 95.8788 21.7358 95.8499 21.7358C95.821 21.7358 95.7969 21.7358 95.7777 21.7358C95.5947 21.7358 95.5032 21.6491 95.5032 21.4758C95.5032 21.3603 95.561 21.2399 95.6766 21.1147C95.8017 20.9799 95.951 20.8499 96.1243 20.7248C96.3073 20.59 96.4998 20.4648 96.702 20.3492C96.9139 20.2337 97.1065 20.1278 97.2798 20.0315C97.4627 19.9256 97.612 19.8341 97.7275 19.7571C97.8527 19.68 97.9153 19.6174 97.9153 19.5693C98.0019 19.1649 98.0405 18.8279 98.0308 18.5583C98.0212 18.2887 97.9827 18.072 97.9153 17.9083C97.8575 17.7446 97.7708 17.6339 97.6553 17.5761C97.5494 17.5087 97.4338 17.4798 97.3087 17.4895C97.1931 17.4991 97.0728 17.5424 96.9476 17.6194C96.8224 17.6965 96.7165 17.7928 96.6298 17.9083C96.5624 17.8313 96.5191 17.7687 96.4998 17.7205C96.4806 17.6628 96.4709 17.6002 96.4709 17.5328C96.6924 17.3113 96.9091 17.1717 97.1209 17.1139C97.3424 17.0562 97.5494 17.061 97.742 17.1284C97.9345 17.1861 98.1079 17.2921 98.2619 17.4461C98.416 17.6002 98.5315 17.7831 98.6086 17.995C98.6952 18.1972 98.7337 18.4186 98.7241 18.6594C98.7241 18.8905 98.6663 19.1167 98.5508 19.3382C98.57 19.3286 98.6086 19.3093 98.6663 19.2804C98.7241 19.2515 98.7867 19.2275 98.8541 19.2082C98.9215 19.1793 98.9841 19.1553 99.0419 19.136C99.1093 19.1071 99.1574 19.0879 99.1863 19.0782H99.2296H99.3018C99.3115 19.0782 99.3211 19.1119 99.3307 19.1793C99.35 19.2371 99.3692 19.3093 99.3885 19.396C99.4174 19.473 99.4415 19.5452 99.4607 19.6126C99.48 19.6704 99.4896 19.7041 99.4896 19.7137L98.4208 20.2192C98.4112 20.2289 98.3775 20.3348 98.3197 20.537C98.2716 20.7296 98.2138 20.9607 98.1464 21.2303C98.079 21.4903 98.0116 21.7647 97.9442 22.0536C97.8768 22.3328 97.8286 22.5591 97.7997 22.7324C97.7805 22.7709 97.7612 22.8479 97.742 22.9635C97.7323 23.0694 97.7227 23.185 97.7131 23.3101C97.7034 23.4257 97.6938 23.5412 97.6842 23.6568C97.6746 23.7627 97.6697 23.8349 97.6697 23.8734C97.6697 23.9312 97.6746 23.9986 97.6842 24.0756C97.6938 24.1527 97.7083 24.2249 97.7275 24.2923C97.7564 24.35 97.7949 24.403 97.8431 24.4512C97.8912 24.4897 97.9538 24.5089 98.0308 24.5089C98.3101 24.5089 98.5556 24.456 98.7674 24.35C98.9889 24.2345 99.1815 24.1093 99.3452 23.9745C99.5089 23.8397 99.6533 23.7145 99.7785 23.599C99.9133 23.4834 100.034 23.4257 100.14 23.4257C100.159 23.4257 100.183 23.4305 100.212 23.4401C100.25 23.4401 100.27 23.4449 100.27 23.4546C100.241 23.7338 100.159 23.9745 100.024 24.1767C99.8988 24.3693 99.74 24.5282 99.5474 24.6534C99.3644 24.7785 99.1478 24.87 98.8974 24.9278C98.6471 24.9856 98.3775 25.0144 98.0886 25.0144C98.0019 25.0144 97.9057 25.0096 97.7997 25C97.6938 24.9904 97.5975 24.9663 97.5109 24.9278C97.4242 24.8893 97.3472 24.8363 97.2798 24.7689C97.222 24.7015 97.1835 24.6148 97.1642 24.5089ZM100.233 24.5089C100.233 24.48 100.233 24.4319 100.233 24.3645C100.233 24.2875 100.228 24.2104 100.219 24.1334C100.219 24.0467 100.219 23.9697 100.219 23.9023C100.219 23.8253 100.219 23.7675 100.219 23.729C100.219 23.4594 100.238 23.1705 100.276 22.8624C100.315 22.5543 100.373 22.2558 100.45 21.9669C100.527 21.6684 100.628 21.3843 100.753 21.1147C100.888 20.8355 101.052 20.5948 101.244 20.3926C101.446 20.1807 101.677 20.0122 101.937 19.8871C102.197 19.7619 102.496 19.6993 102.833 19.6993C103.054 19.6993 103.223 19.7667 103.338 19.9015C103.454 20.0267 103.531 20.1855 103.57 20.3781C103.618 20.5707 103.642 20.7729 103.642 20.9847C103.651 21.1966 103.656 21.3843 103.656 21.548C103.656 21.9236 103.618 22.3183 103.541 22.7324C103.464 23.1368 103.338 23.5075 103.165 23.8445C102.992 24.1815 102.751 24.4608 102.443 24.6822C102.144 24.9037 101.769 25.0144 101.316 25.0144C101.182 25.0144 101.066 25.0096 100.97 25C100.873 24.9904 100.787 24.9663 100.71 24.9278C100.633 24.8796 100.556 24.8267 100.479 24.7689C100.402 24.7015 100.32 24.6148 100.233 24.5089ZM100.739 24.2489C100.825 24.3356 100.926 24.3789 101.042 24.3789C101.158 24.3789 101.268 24.3789 101.374 24.3789C101.74 24.3789 102.039 24.2875 102.27 24.1045C102.501 23.9119 102.679 23.676 102.804 23.3968C102.939 23.1175 103.03 22.8142 103.078 22.4869C103.136 22.1498 103.165 21.8369 103.165 21.548C103.165 21.4132 103.165 21.2688 103.165 21.1147C103.175 20.951 103.16 20.8018 103.122 20.667C103.093 20.5226 103.035 20.407 102.949 20.3204C102.862 20.2241 102.732 20.1759 102.559 20.1759C102.559 20.33 102.539 20.4455 102.501 20.5226C102.462 20.5996 102.409 20.6525 102.342 20.6814C102.284 20.7103 102.212 20.7296 102.125 20.7392C102.048 20.7392 101.962 20.7537 101.865 20.7825C101.779 20.8114 101.692 20.8548 101.605 20.9125C101.519 20.9703 101.442 21.0714 101.374 21.2158C101.22 21.6491 101.071 22.068 100.926 22.4724C100.792 22.8672 100.724 23.2861 100.724 23.729C100.724 23.7579 100.724 23.7964 100.724 23.8445C100.724 23.883 100.724 23.9312 100.724 23.989C100.734 24.0467 100.739 24.0997 100.739 24.1478C100.739 24.1864 100.739 24.2201 100.739 24.2489ZM110.401 22.5446C110.401 22.5254 110.401 22.4965 110.401 22.458C110.401 22.4195 110.401 22.3761 110.401 22.328C110.41 22.2798 110.415 22.2365 110.415 22.198C110.415 22.1498 110.415 22.121 110.415 22.1113C110.425 22.0824 110.458 22.0487 110.516 22.0102C110.584 21.9717 110.632 21.9573 110.661 21.9669C110.718 21.9862 110.771 22.0536 110.82 22.1691C110.868 22.2846 110.916 22.4243 110.964 22.588C111.012 22.7517 111.065 22.9346 111.123 23.1368C111.19 23.3294 111.272 23.5123 111.368 23.6857C111.474 23.8493 111.599 23.9986 111.744 24.1334C111.898 24.2586 112.081 24.3404 112.293 24.3789C112.36 24.3886 112.413 24.3886 112.452 24.3789C112.49 24.3597 112.514 24.3356 112.524 24.3067C112.543 24.2682 112.553 24.2297 112.553 24.1912C112.553 24.143 112.553 24.1045 112.553 24.0756C112.543 23.9023 112.476 23.7242 112.351 23.5412C112.225 23.3486 112.076 23.1464 111.903 22.9346C111.729 22.7131 111.556 22.482 111.383 22.2413C111.21 21.991 111.065 21.731 110.95 21.4614C110.834 21.1821 110.762 20.8885 110.733 20.5803C110.704 20.2626 110.762 19.9256 110.906 19.5693C110.906 19.4826 110.95 19.3671 111.036 19.2227C111.132 19.0782 111.243 18.9434 111.368 18.8182C111.503 18.6834 111.643 18.5679 111.787 18.4716C111.932 18.3753 112.057 18.3272 112.163 18.3272C112.317 18.3272 112.461 18.3561 112.596 18.4138C112.741 18.4716 112.851 18.5679 112.928 18.7027C113.025 18.8279 113.135 18.9964 113.26 19.2082C113.395 19.4104 113.511 19.6126 113.607 19.8148C113.713 20.017 113.78 20.2 113.809 20.3637C113.838 20.5274 113.795 20.6237 113.679 20.6525C113.545 20.6525 113.429 20.614 113.333 20.537C113.246 20.46 113.174 20.3637 113.116 20.2481C113.058 20.1326 113.005 20.0074 112.957 19.8726C112.909 19.7282 112.856 19.5982 112.798 19.4826C112.741 19.3671 112.673 19.2708 112.596 19.1938C112.519 19.1071 112.418 19.0638 112.293 19.0638C112.119 19.0638 111.965 19.1167 111.831 19.2227C111.705 19.3286 111.599 19.4586 111.513 19.6126C111.436 19.7667 111.378 19.9352 111.34 20.1181C111.311 20.2915 111.296 20.4455 111.296 20.5803C111.296 20.8211 111.34 21.0473 111.426 21.2592C111.522 21.4614 111.638 21.6588 111.773 21.8513C111.917 22.0343 112.071 22.2172 112.235 22.4002C112.408 22.5831 112.562 22.7709 112.697 22.9635C112.842 23.1464 112.962 23.339 113.058 23.5412C113.155 23.7434 113.203 23.9601 113.203 24.1912C113.203 24.2875 113.179 24.3838 113.13 24.48C113.092 24.5667 113.034 24.6534 112.957 24.74C112.89 24.8171 112.808 24.8796 112.712 24.9278C112.615 24.9759 112.519 25 112.423 25C112.153 25 111.898 24.9182 111.657 24.7545C111.417 24.5908 111.2 24.3838 111.007 24.1334C110.824 23.883 110.675 23.6183 110.56 23.339C110.454 23.0501 110.401 22.7854 110.401 22.5446ZM115.419 19.0782C115.227 19.0782 115.092 19.1167 115.015 19.1938C114.938 19.2708 114.875 19.3526 114.827 19.4393C114.789 19.526 114.75 19.6078 114.712 19.6848C114.673 19.7619 114.601 19.8004 114.495 19.8004C114.38 19.8004 114.288 19.7811 114.221 19.7426C114.144 19.6945 114.105 19.6078 114.105 19.4826C114.115 19.3575 114.163 19.2371 114.25 19.1216C114.336 19.006 114.442 18.9049 114.567 18.8182C114.702 18.722 114.842 18.6497 114.986 18.6016C115.131 18.5534 115.275 18.539 115.419 18.5583C115.554 18.5583 115.679 18.5679 115.795 18.5871C115.911 18.6064 116.012 18.6449 116.098 18.7027C116.185 18.7605 116.252 18.8423 116.301 18.9482C116.349 19.0445 116.373 19.1745 116.373 19.3382V24.119L116.618 23.8734C116.628 23.8638 116.671 23.7868 116.748 23.6423C116.835 23.4883 116.931 23.3101 117.037 23.1079C117.143 22.9057 117.249 22.6987 117.355 22.4869C117.47 22.275 117.562 22.1017 117.629 21.9669C117.851 21.524 118.029 21.0955 118.164 20.6814C118.299 20.2578 118.414 19.81 118.51 19.3382C118.53 19.2612 118.573 19.2178 118.64 19.2082C118.717 19.189 118.78 19.1793 118.828 19.1793C118.838 19.1793 118.867 19.1841 118.915 19.1938C118.963 19.1938 118.997 19.1938 119.016 19.1938C119.016 19.2708 119.016 19.3863 119.016 19.5404C119.026 19.6945 119.035 19.8678 119.045 20.0604C119.054 20.2529 119.064 20.4552 119.074 20.667C119.083 20.8692 119.093 21.0666 119.103 21.2592C119.112 21.4517 119.122 21.6251 119.131 21.7791C119.141 21.9236 119.146 22.0343 119.146 22.1113C119.146 22.1691 119.151 22.275 119.16 22.4291C119.18 22.5735 119.208 22.7276 119.247 22.8913C119.295 23.0453 119.358 23.185 119.435 23.3101C119.512 23.4353 119.622 23.4979 119.767 23.4979C119.902 23.4209 120.037 23.3294 120.171 23.2235C120.306 23.1175 120.441 23.0116 120.576 22.9057C120.72 22.7902 120.86 22.6891 120.995 22.6024C121.139 22.5061 121.288 22.4339 121.442 22.3858C121.519 22.4339 121.548 22.5061 121.529 22.6024C121.51 22.6987 121.457 22.8094 121.37 22.9346C121.283 23.0598 121.173 23.1898 121.038 23.3246C120.903 23.4497 120.754 23.5701 120.59 23.6857C120.427 23.7916 120.258 23.8782 120.085 23.9456C119.921 24.0034 119.767 24.0227 119.622 24.0034C119.343 24.0034 119.127 23.9167 118.973 23.7434C118.828 23.5701 118.722 23.3631 118.655 23.1224C118.597 22.872 118.563 22.612 118.554 22.3424C118.544 22.0728 118.539 21.8417 118.539 21.6491C118.433 21.6491 118.327 21.7358 118.221 21.9091C118.125 22.0728 118.024 22.2798 117.918 22.5302C117.812 22.7805 117.702 23.0501 117.586 23.339C117.47 23.6279 117.345 23.8975 117.21 24.1478C117.076 24.3886 116.931 24.5956 116.777 24.7689C116.633 24.9326 116.474 25.0144 116.301 25.0144C116.175 25.0144 116.074 24.9807 115.997 24.9133C115.92 24.8459 115.862 24.7593 115.824 24.6534C115.785 24.5474 115.761 24.4367 115.752 24.3212C115.742 24.2056 115.737 24.0949 115.737 23.989V19.4538C115.737 19.4249 115.728 19.3912 115.708 19.3526C115.689 19.3045 115.665 19.2612 115.636 19.2227C115.607 19.1841 115.574 19.1504 115.535 19.1216C115.497 19.0927 115.458 19.0782 115.419 19.0782ZM121.29 23.5557C121.29 23.4786 121.3 23.3246 121.319 23.0935C121.348 22.8624 121.382 22.6024 121.42 22.3135C121.469 22.015 121.526 21.7069 121.594 21.3892C121.661 21.0618 121.743 20.7633 121.839 20.4937C121.945 20.2241 122.061 20.0026 122.186 19.8293C122.311 19.656 122.456 19.5693 122.619 19.5693C122.821 19.5693 122.98 19.6463 123.096 19.8004C123.211 19.9545 123.298 20.1374 123.356 20.3492C123.423 20.5514 123.467 20.7633 123.486 20.9847C123.515 21.1966 123.529 21.3651 123.529 21.4903C123.327 21.4903 123.197 21.4566 123.139 21.3892C123.081 21.3218 123.038 21.2399 123.009 21.1436C122.99 21.0473 122.966 20.951 122.937 20.8548C122.908 20.7488 122.826 20.6574 122.691 20.5803C122.47 20.7151 122.301 20.9077 122.186 21.1581C122.07 21.3988 121.979 21.6636 121.911 21.9525C121.854 22.2413 121.82 22.5254 121.81 22.8046C121.801 23.0838 121.796 23.3342 121.796 23.5557C121.796 23.8253 121.844 24.0516 121.94 24.2345C122.046 24.4175 122.253 24.5089 122.561 24.5089C122.802 24.5089 123.033 24.4608 123.255 24.3645C123.476 24.2682 123.688 24.1478 123.89 24.0034C124.092 23.8493 124.28 23.6857 124.454 23.5123C124.636 23.3294 124.805 23.1561 124.959 22.9924H125.233C125.233 22.9924 125.229 23.0116 125.219 23.0501C125.219 23.079 125.214 23.1031 125.205 23.1224C125.07 23.4016 124.901 23.6568 124.699 23.8879C124.497 24.119 124.275 24.3163 124.035 24.48C123.794 24.6437 123.529 24.7737 123.24 24.87C122.961 24.9663 122.667 25.0144 122.359 25.0144C122.138 25.0144 121.955 24.9807 121.81 24.9133C121.676 24.8363 121.57 24.7352 121.493 24.61C121.416 24.4752 121.363 24.3212 121.334 24.1478C121.305 23.9649 121.29 23.7675 121.29 23.5557ZM125.341 23.5557C125.341 23.4786 125.351 23.3246 125.37 23.0935C125.399 22.8624 125.433 22.6024 125.471 22.3135C125.52 22.015 125.577 21.7069 125.645 21.3892C125.712 21.0618 125.794 20.7633 125.89 20.4937C125.996 20.2241 126.112 20.0026 126.237 19.8293C126.362 19.656 126.507 19.5693 126.67 19.5693C126.872 19.5693 127.031 19.6463 127.147 19.8004C127.262 19.9545 127.349 20.1374 127.407 20.3492C127.474 20.5514 127.518 20.7633 127.537 20.9847C127.566 21.1966 127.58 21.3651 127.58 21.4903C127.378 21.4903 127.248 21.4566 127.19 21.3892C127.132 21.3218 127.089 21.2399 127.06 21.1436C127.041 21.0473 127.017 20.951 126.988 20.8548C126.959 20.7488 126.877 20.6574 126.742 20.5803C126.521 20.7151 126.353 20.9077 126.237 21.1581C126.121 21.3988 126.03 21.6636 125.963 21.9525C125.905 22.2413 125.871 22.5254 125.861 22.8046C125.852 23.0838 125.847 23.3342 125.847 23.5557C125.847 23.8253 125.895 24.0516 125.991 24.2345C126.097 24.4175 126.304 24.5089 126.612 24.5089C126.853 24.5089 127.084 24.4608 127.306 24.3645C127.527 24.2682 127.739 24.1478 127.941 24.0034C128.143 23.8493 128.331 23.6857 128.505 23.5123C128.688 23.3294 128.856 23.1561 129.01 22.9924H129.285C129.285 22.9924 129.28 23.0116 129.27 23.0501C129.27 23.079 129.265 23.1031 129.256 23.1224C129.121 23.4016 128.952 23.6568 128.75 23.8879C128.548 24.119 128.326 24.3163 128.086 24.48C127.845 24.6437 127.58 24.7737 127.291 24.87C127.012 24.9663 126.718 25.0144 126.41 25.0144C126.189 25.0144 126.006 24.9807 125.861 24.9133C125.727 24.8363 125.621 24.7352 125.544 24.61C125.467 24.4752 125.414 24.3212 125.385 24.1478C125.356 23.9649 125.341 23.7675 125.341 23.5557ZM129.523 23.1946C129.455 23.2331 129.402 23.2427 129.364 23.2235C129.325 23.2042 129.296 23.1753 129.277 23.1368C129.267 23.0983 129.258 23.055 129.248 23.0068C129.248 22.949 129.248 22.9105 129.248 22.8913C129.248 22.6987 129.272 22.5831 129.32 22.5446C129.368 22.4965 129.431 22.4676 129.508 22.458C129.585 22.4387 129.667 22.4146 129.754 22.3858C129.84 22.3569 129.922 22.2654 129.999 22.1113C130.115 21.8706 130.216 21.6203 130.302 21.3603C130.399 21.0907 130.514 20.8403 130.649 20.6092C130.784 20.3781 130.952 20.1904 131.155 20.0459C131.366 19.9015 131.655 19.8293 132.021 19.8293C132.079 19.8293 132.142 19.8341 132.209 19.8437C132.286 19.8533 132.353 19.8726 132.411 19.9015C132.479 19.9208 132.532 19.9593 132.57 20.017C132.618 20.0652 132.642 20.1326 132.642 20.2192C132.642 20.4215 132.589 20.6044 132.483 20.7681C132.387 20.9222 132.262 21.0666 132.108 21.2014C131.963 21.3266 131.805 21.4469 131.631 21.5625C131.458 21.678 131.299 21.7888 131.155 21.8947C131.01 22.0006 130.885 22.1113 130.779 22.2269C130.683 22.3424 130.635 22.4676 130.635 22.6024V23.989C130.635 24.0949 130.673 24.1815 130.75 24.2489C130.837 24.3067 130.933 24.3549 131.039 24.3934C131.145 24.4319 131.256 24.4608 131.371 24.48C131.487 24.4993 131.574 24.5089 131.631 24.5089C131.862 24.5089 132.093 24.4704 132.325 24.3934C132.556 24.3067 132.777 24.2008 132.989 24.0756C133.21 23.9504 133.417 23.8156 133.61 23.6712C133.803 23.5171 133.986 23.3727 134.159 23.2379C134.217 23.1898 134.265 23.1416 134.303 23.0935C134.351 23.0357 134.395 22.9827 134.433 22.9346C134.481 22.8865 134.53 22.8479 134.578 22.8191C134.636 22.7805 134.708 22.7517 134.794 22.7324C134.794 22.742 134.794 22.7613 134.794 22.7902C134.794 22.8191 134.794 22.8431 134.794 22.8624C134.794 22.9394 134.785 23.0068 134.765 23.0646C134.756 23.1224 134.722 23.1801 134.664 23.2379C134.453 23.4786 134.226 23.7049 133.986 23.9167C133.745 24.1286 133.49 24.3163 133.22 24.48C132.95 24.6437 132.666 24.7737 132.368 24.87C132.069 24.9663 131.752 25.0144 131.415 25.0144C131.078 25.0144 130.818 24.9663 130.635 24.87C130.452 24.7737 130.307 24.6341 130.201 24.4512C130.105 24.2682 130.038 24.0516 129.999 23.8012C129.961 23.5508 129.917 23.2812 129.869 22.9924L129.523 23.1946ZM131.386 20.9559C131.386 20.9366 131.366 20.9414 131.328 20.9703C131.299 20.9896 131.261 21.0184 131.212 21.057C131.174 21.0955 131.145 21.134 131.126 21.1725C131.107 21.2014 131.107 21.2158 131.126 21.2158C131.174 21.2255 131.232 21.1966 131.299 21.1292C131.366 21.0618 131.395 21.004 131.386 20.9559ZM134.859 22.5446C134.859 22.5254 134.859 22.4965 134.859 22.458C134.859 22.4195 134.859 22.3761 134.859 22.328C134.869 22.2798 134.874 22.2365 134.874 22.198C134.874 22.1498 134.874 22.121 134.874 22.1113C134.883 22.0824 134.917 22.0487 134.975 22.0102C135.042 21.9717 135.09 21.9573 135.119 21.9669C135.177 21.9862 135.23 22.0536 135.278 22.1691C135.326 22.2846 135.374 22.4243 135.422 22.588C135.471 22.7517 135.523 22.9346 135.581 23.1368C135.649 23.3294 135.731 23.5123 135.827 23.6857C135.933 23.8493 136.058 23.9986 136.202 24.1334C136.356 24.2586 136.539 24.3404 136.751 24.3789C136.819 24.3886 136.872 24.3886 136.91 24.3789C136.949 24.3597 136.973 24.3356 136.982 24.3067C137.002 24.2682 137.011 24.2297 137.011 24.1912C137.011 24.143 137.011 24.1045 137.011 24.0756C137.002 23.9023 136.934 23.7242 136.809 23.5412C136.684 23.3486 136.535 23.1464 136.361 22.9346C136.188 22.7131 136.015 22.482 135.841 22.2413C135.668 21.991 135.523 21.731 135.408 21.4614C135.292 21.1821 135.22 20.8885 135.191 20.5803C135.162 20.2626 135.22 19.9256 135.365 19.5693C135.365 19.4826 135.408 19.3671 135.495 19.2227C135.591 19.0782 135.702 18.9434 135.827 18.8182C135.962 18.6834 136.101 18.5679 136.246 18.4716C136.39 18.3753 136.515 18.3272 136.621 18.3272C136.775 18.3272 136.92 18.3561 137.054 18.4138C137.199 18.4716 137.31 18.5679 137.387 18.7027C137.483 18.8279 137.594 18.9964 137.719 19.2082C137.854 19.4104 137.969 19.6126 138.066 19.8148C138.171 20.017 138.239 20.2 138.268 20.3637C138.297 20.5274 138.253 20.6237 138.138 20.6525C138.003 20.6525 137.887 20.614 137.791 20.537C137.704 20.46 137.632 20.3637 137.574 20.2481C137.517 20.1326 137.464 20.0074 137.416 19.8726C137.367 19.7282 137.314 19.5982 137.257 19.4826C137.199 19.3671 137.132 19.2708 137.054 19.1938C136.977 19.1071 136.876 19.0638 136.751 19.0638C136.578 19.0638 136.424 19.1167 136.289 19.2227C136.164 19.3286 136.058 19.4586 135.971 19.6126C135.894 19.7667 135.836 19.9352 135.798 20.1181C135.769 20.2915 135.755 20.4455 135.755 20.5803C135.755 20.8211 135.798 21.0473 135.885 21.2592C135.981 21.4614 136.096 21.6588 136.231 21.8513C136.376 22.0343 136.53 22.2172 136.693 22.4002C136.867 22.5831 137.021 22.7709 137.156 22.9635C137.3 23.1464 137.42 23.339 137.517 23.5412C137.613 23.7434 137.661 23.9601 137.661 24.1912C137.661 24.2875 137.637 24.3838 137.589 24.48C137.55 24.5667 137.493 24.6534 137.416 24.74C137.348 24.8171 137.266 24.8796 137.17 24.9278C137.074 24.9759 136.977 25 136.881 25C136.612 25 136.356 24.9182 136.116 24.7545C135.875 24.5908 135.658 24.3838 135.466 24.1334C135.283 23.883 135.134 23.6183 135.018 23.339C134.912 23.0501 134.859 22.7854 134.859 22.5446ZM138.939 22.5446C138.939 22.5254 138.939 22.4965 138.939 22.458C138.939 22.4195 138.939 22.3761 138.939 22.328C138.949 22.2798 138.953 22.2365 138.953 22.198C138.953 22.1498 138.953 22.121 138.953 22.1113C138.963 22.0824 138.997 22.0487 139.055 22.0102C139.122 21.9717 139.17 21.9573 139.199 21.9669C139.257 21.9862 139.31 22.0536 139.358 22.1691C139.406 22.2846 139.454 22.4243 139.502 22.588C139.55 22.7517 139.603 22.9346 139.661 23.1368C139.729 23.3294 139.81 23.5123 139.907 23.6857C140.013 23.8493 140.138 23.9986 140.282 24.1334C140.436 24.2586 140.619 24.3404 140.831 24.3789C140.899 24.3886 140.951 24.3886 140.99 24.3789C141.029 24.3597 141.053 24.3356 141.062 24.3067C141.081 24.2682 141.091 24.2297 141.091 24.1912C141.091 24.143 141.091 24.1045 141.091 24.0756C141.081 23.9023 141.014 23.7242 140.889 23.5412C140.764 23.3486 140.614 23.1464 140.441 22.9346C140.268 22.7131 140.095 22.482 139.921 22.2413C139.748 21.991 139.603 21.731 139.488 21.4614C139.372 21.1821 139.3 20.8885 139.271 20.5803C139.242 20.2626 139.3 19.9256 139.445 19.5693C139.445 19.4826 139.488 19.3671 139.575 19.2227C139.671 19.0782 139.782 18.9434 139.907 18.8182C140.042 18.6834 140.181 18.5679 140.326 18.4716C140.47 18.3753 140.595 18.3272 140.701 18.3272C140.855 18.3272 141 18.3561 141.134 18.4138C141.279 18.4716 141.39 18.5679 141.467 18.7027C141.563 18.8279 141.674 18.9964 141.799 19.2082C141.934 19.4104 142.049 19.6126 142.145 19.8148C142.251 20.017 142.319 20.2 142.348 20.3637C142.377 20.5274 142.333 20.6237 142.218 20.6525C142.083 20.6525 141.967 20.614 141.871 20.537C141.784 20.46 141.712 20.3637 141.654 20.2481C141.597 20.1326 141.544 20.0074 141.496 19.8726C141.447 19.7282 141.394 19.5982 141.337 19.4826C141.279 19.3671 141.211 19.2708 141.134 19.1938C141.057 19.1071 140.956 19.0638 140.831 19.0638C140.658 19.0638 140.504 19.1167 140.369 19.2227C140.244 19.3286 140.138 19.4586 140.051 19.6126C139.974 19.7667 139.916 19.9352 139.878 20.1181C139.849 20.2915 139.835 20.4455 139.835 20.5803C139.835 20.8211 139.878 21.0473 139.965 21.2592C140.061 21.4614 140.176 21.6588 140.311 21.8513C140.456 22.0343 140.61 22.2172 140.773 22.4002C140.947 22.5831 141.101 22.7709 141.236 22.9635C141.38 23.1464 141.5 23.339 141.597 23.5412C141.693 23.7434 141.741 23.9601 141.741 24.1912C141.741 24.2875 141.717 24.3838 141.669 24.48C141.63 24.5667 141.573 24.6534 141.496 24.74C141.428 24.8171 141.346 24.8796 141.25 24.9278C141.154 24.9759 141.057 25 140.961 25C140.692 25 140.436 24.9182 140.196 24.7545C139.955 24.5908 139.738 24.3838 139.546 24.1334C139.363 23.883 139.213 23.6183 139.098 23.339C138.992 23.0501 138.939 22.7854 138.939 22.5446Z" fill="black"/>
</svg>
